<svg width="39" height="39" viewBox="0 0 39 39" fill="none" xmlns="http://www.w3.org/2000/svg">
<mask id="path-1-inside-1_4014_538" fill="white">
<path fill-rule="evenodd" clip-rule="evenodd" d="M30.1733 30.1736C35.4055 27.5656 38.9998 22.1617 38.9998 15.9184C38.9998 7.12691 31.8729 0 23.0814 0C16.8381 0 11.4342 3.59425 8.82617 8.82643C10.9616 7.76198 13.37 7.16324 15.9181 7.16324C24.7096 7.16324 31.8365 14.2902 31.8365 23.0816C31.8365 25.6298 31.2378 28.0381 30.1733 30.1736Z"/>
</mask>
<path fill-rule="evenodd" clip-rule="evenodd" d="M30.1733 30.1736C35.4055 27.5656 38.9998 22.1617 38.9998 15.9184C38.9998 7.12691 31.8729 0 23.0814 0C16.8381 0 11.4342 3.59425 8.82617 8.82643C10.9616 7.76198 13.37 7.16324 15.9181 7.16324C24.7096 7.16324 31.8365 14.2902 31.8365 23.0816C31.8365 25.6298 31.2378 28.0381 30.1733 30.1736Z" fill="#CCCEEF"/>
<path d="M30.1733 30.1736L29.2784 29.7275L27.9455 32.4014L30.6195 31.0686L30.1733 30.1736ZM8.82617 8.82643L7.93119 8.38032L6.59833 11.0543L9.27228 9.72141L8.82617 8.82643ZM37.9998 15.9184C37.9998 21.768 34.6332 26.8332 29.7272 29.2786L30.6195 31.0686C36.1779 28.2979 39.9998 22.5554 39.9998 15.9184H37.9998ZM23.0814 1C31.3206 1 37.9998 7.67919 37.9998 15.9184H39.9998C39.9998 6.57462 32.4251 -1 23.0814 -1V1ZM9.72115 9.27254C12.1666 4.36662 17.2317 1 23.0814 1V-1C16.4444 -1 10.7019 2.82188 7.93119 8.38032L9.72115 9.27254ZM9.27228 9.72141C11.2723 8.72447 13.5282 8.16324 15.9181 8.16324V6.16324C13.2117 6.16324 10.651 6.79948 8.38006 7.93145L9.27228 9.72141ZM15.9181 8.16324C24.1573 8.16324 30.8365 14.8424 30.8365 23.0816H32.8365C32.8365 13.7379 25.2619 6.16324 15.9181 6.16324V8.16324ZM30.8365 23.0816C30.8365 25.4715 30.2753 27.7275 29.2784 29.7275L31.0683 30.6197C32.2003 28.3488 32.8365 25.7881 32.8365 23.0816H30.8365Z" fill="#070710" mask="url(#path-1-inside-1_4014_538)"/>
<mask id="path-3-inside-2_4014_538" fill="white">
<path fill-rule="evenodd" clip-rule="evenodd" d="M15.9184 38.9999C24.7099 38.9999 31.8368 31.873 31.8368 23.0815C31.8368 14.29 24.7099 7.16309 15.9184 7.16309C7.12691 7.16309 0 14.29 0 23.0815C0 26.4754 1.06216 29.6213 2.8722 32.2048C2.96194 32.0781 3.06547 31.955 3.18362 31.8369L10.3469 25.4695C9.55095 24.6736 7.95912 21.4899 7.56116 19.1022L23.4796 15.5205L19.8979 31.4389C17.5102 31.041 15.1224 29.8471 13.5306 28.6532L7.16322 35.8165C7.0447 35.935 6.92473 36.0406 6.80386 36.1338C9.38572 37.9401 12.5283 38.9999 15.9184 38.9999Z"/>
</mask>
<path fill-rule="evenodd" clip-rule="evenodd" d="M15.9184 38.9999C24.7099 38.9999 31.8368 31.873 31.8368 23.0815C31.8368 14.29 24.7099 7.16309 15.9184 7.16309C7.12691 7.16309 0 14.29 0 23.0815C0 26.4754 1.06216 29.6213 2.8722 32.2048C2.96194 32.0781 3.06547 31.955 3.18362 31.8369L10.3469 25.4695C9.55095 24.6736 7.95912 21.4899 7.56116 19.1022L23.4796 15.5205L19.8979 31.4389C17.5102 31.041 15.1224 29.8471 13.5306 28.6532L7.16322 35.8165C7.0447 35.935 6.92473 36.0406 6.80386 36.1338C9.38572 37.9401 12.5283 38.9999 15.9184 38.9999Z" fill="#CCCEEF"/>
<path d="M2.8722 32.2048L2.05321 32.7786L2.86802 33.9416L3.68843 32.7826L2.8722 32.2048ZM3.18362 31.8369L2.51925 31.0895L2.49729 31.109L2.47651 31.1298L3.18362 31.8369ZM10.3469 25.4695L11.0112 26.2169L11.8039 25.5123L11.054 24.7624L10.3469 25.4695ZM7.56116 19.1022L7.34164 18.1266L6.41935 18.3341L6.57476 19.2666L7.56116 19.1022ZM23.4796 15.5205L24.4552 15.74L24.8022 14.198L23.2601 14.5449L23.4796 15.5205ZM19.8979 31.4389L19.7335 32.4253L20.666 32.5807L20.8735 31.6584L19.8979 31.4389ZM13.5306 28.6532L14.1306 27.8532L13.3944 27.3011L12.7831 27.9888L13.5306 28.6532ZM7.16322 35.8165L7.87032 36.5236L7.8911 36.5028L7.91063 36.4808L7.16322 35.8165ZM6.80386 36.1338L6.19288 35.3422L5.1159 36.1734L6.23061 36.9532L6.80386 36.1338ZM30.8368 23.0815C30.8368 31.3207 24.1576 37.9999 15.9184 37.9999V39.9999C25.2622 39.9999 32.8368 32.4252 32.8368 23.0815H30.8368ZM15.9184 8.16309C24.1576 8.16309 30.8368 14.8423 30.8368 23.0815H32.8368C32.8368 13.7377 25.2622 6.16309 15.9184 6.16309V8.16309ZM1 23.0815C1 14.8423 7.67919 8.16309 15.9184 8.16309V6.16309C6.57462 6.16309 -1 13.7377 -1 23.0815H1ZM3.6912 31.631C1.99513 29.2102 1 26.2635 1 23.0815H-1C-1 26.6873 0.129187 30.0324 2.05321 32.7786L3.6912 31.631ZM2.47651 31.1298C2.31936 31.2869 2.17914 31.4531 2.05598 31.6271L3.68843 32.7826C3.74474 32.703 3.81159 32.6231 3.89072 32.544L2.47651 31.1298ZM9.68251 24.7221L2.51925 31.0895L3.84798 32.5843L11.0112 26.2169L9.68251 24.7221ZM6.57476 19.2666C6.79366 20.58 7.3285 22.0619 7.89572 23.2994C8.18193 23.9239 8.48449 24.5039 8.77325 24.9874C9.05141 25.4531 9.35097 25.8878 9.63977 26.1766L11.054 24.7624C10.9448 24.6533 10.7469 24.3915 10.4903 23.9619C10.2443 23.55 9.97483 23.0355 9.71385 22.4661C9.18667 21.3159 8.72661 20.0121 8.54755 18.9378L6.57476 19.2666ZM23.2601 14.5449L7.34164 18.1266L7.78067 20.0778L23.6991 16.4961L23.2601 14.5449ZM20.8735 31.6584L24.4552 15.74L22.504 15.301L18.9223 31.2194L20.8735 31.6584ZM12.9306 29.4532C14.625 30.724 17.1589 31.9962 19.7335 32.4253L20.0623 30.4525C17.8614 30.0857 15.6198 28.9702 14.1306 27.8532L12.9306 29.4532ZM7.91063 36.4808L14.278 29.3176L12.7831 27.9888L6.41581 35.1521L7.91063 36.4808ZM7.41483 36.9255C7.57121 36.8048 7.72314 36.6708 7.87032 36.5236L6.45611 35.1094C6.36626 35.1992 6.27826 35.2763 6.19288 35.3422L7.41483 36.9255ZM15.9184 37.9999C12.7399 37.9999 9.79638 37.007 7.3771 35.3145L6.23061 36.9532C8.97505 38.8733 12.3166 39.9999 15.9184 39.9999V37.9999Z" fill="#070710" mask="url(#path-3-inside-2_4014_538)"/>
<path opacity="0.4" fill-rule="evenodd" clip-rule="evenodd" d="M8.82725 8.82627C10.9627 7.76182 13.371 7.16309 15.9192 7.16309C24.7107 7.16309 31.8376 14.29 31.8376 23.0815C31.8376 25.6296 31.2389 28.038 30.1744 30.1734C28.0389 31.2379 25.6306 31.8366 23.0825 31.8366C14.291 31.8366 7.16406 24.7097 7.16406 15.9182C7.16406 13.3701 7.76279 10.9617 8.82725 8.82627Z" fill="#7130C3"/>
</svg>
