<svg width="173" height="39" viewBox="0 0 173 39" fill="none" xmlns="http://www.w3.org/2000/svg">
<path d="M60.192 31.272C57.9707 31.272 55.9533 30.8073 54.14 29.878C52.3267 28.9487 50.8873 27.566 49.822 25.73C48.7567 23.894 48.224 21.684 48.224 19.1C48.224 16.516 48.7567 14.306 49.822 12.47C50.91 10.634 52.3607 9.25133 54.174 8.322C56.01 7.39267 58.016 6.928 60.192 6.928C62.164 6.928 63.9433 7.27933 65.53 7.982C67.1167 8.68467 68.4087 9.682 69.406 10.974C70.4033 12.266 71.004 13.762 71.208 15.462H65.836C65.6773 14.2153 65.0653 13.218 64 12.47C62.9573 11.6993 61.6767 11.314 60.158 11.314C58.866 11.314 57.71 11.62 56.69 12.232C55.67 12.8213 54.8653 13.7053 54.276 14.884C53.6867 16.04 53.392 17.4453 53.392 19.1C53.392 20.7547 53.6867 22.1713 54.276 23.35C54.8653 24.506 55.67 25.3787 56.69 25.968C57.71 26.5573 58.866 26.852 60.158 26.852C61.6767 26.852 62.9687 26.478 64.034 25.73C65.122 24.9593 65.768 23.962 65.972 22.738H71.106C70.9473 24.4153 70.3807 25.9 69.406 27.192C68.454 28.484 67.1733 29.4927 65.564 30.218C63.9773 30.9207 62.1867 31.272 60.192 31.272ZM80.9455 31.272C79.2229 31.272 77.6702 30.898 76.2875 30.15C74.9049 29.3793 73.8282 28.3253 73.0575 26.988C72.2869 25.628 71.9015 24.1093 71.9015 22.432C71.9015 20.7547 72.2869 19.2473 73.0575 17.91C73.8282 16.55 74.9049 15.496 76.2875 14.748C77.6702 13.9773 79.2229 13.592 80.9455 13.592C82.6682 13.592 84.2209 13.9773 85.6035 14.748C86.9862 15.496 88.0629 16.55 88.8335 17.91C89.6042 19.2473 89.9895 20.7547 89.9895 22.432C89.9895 24.1093 89.6042 25.628 88.8335 26.988C88.0629 28.3253 86.9862 29.3793 85.6035 30.15C84.2209 30.898 82.6682 31.272 80.9455 31.272ZM80.9455 27.192C82.2149 27.192 83.2462 26.75 84.0395 25.866C84.8329 24.982 85.2295 23.8373 85.2295 22.432C85.2295 21.004 84.8329 19.848 84.0395 18.964C83.2462 18.08 82.2149 17.638 80.9455 17.638C79.6762 17.638 78.6449 18.08 77.8515 18.964C77.0582 19.848 76.6615 21.004 76.6615 22.432C76.6615 23.8373 77.0582 24.982 77.8515 25.866C78.6449 26.75 79.6762 27.192 80.9455 27.192ZM91.8882 13.864H96.6142V31H91.8882V13.864ZM96.7842 6.418V11.416H91.7522V6.418H96.7842ZM99.4678 13.864H104.194V16.244C104.67 15.4053 105.361 14.7593 106.268 14.306C107.197 13.83 108.251 13.592 109.43 13.592C110.699 13.592 111.81 13.8753 112.762 14.442C113.737 15.0087 114.485 15.802 115.006 16.822C115.527 17.842 115.788 19.0093 115.788 20.324V31H111.028V21.378C111.028 20.3353 110.722 19.4853 110.11 18.828C109.498 18.148 108.705 17.808 107.73 17.808C106.687 17.808 105.837 18.1707 105.18 18.896C104.523 19.5987 104.194 20.5053 104.194 21.616V31H99.4678V13.864ZM118.436 13.864H123.162V15.734C123.683 15.054 124.352 14.5327 125.168 14.17C126.007 13.7847 126.97 13.592 128.058 13.592C129.645 13.592 131.027 13.9547 132.206 14.68C133.407 15.4053 134.325 16.4367 134.96 17.774C135.617 19.1113 135.946 20.664 135.946 22.432C135.946 24.2 135.595 25.7527 134.892 27.09C134.212 28.4047 133.249 29.436 132.002 30.184C130.755 30.9093 129.316 31.272 127.684 31.272C126.709 31.272 125.825 31.1133 125.032 30.796C124.239 30.4787 123.615 30.0367 123.162 29.47V37.936H118.436V13.864ZM127.072 27.192C128.319 27.192 129.327 26.7613 130.098 25.9C130.869 25.016 131.254 23.86 131.254 22.432C131.254 20.9813 130.869 19.8253 130.098 18.964C129.35 18.08 128.341 17.638 127.072 17.638C125.803 17.638 124.783 18.08 124.012 18.964C123.264 19.8253 122.89 20.9813 122.89 22.432C122.89 23.86 123.275 25.016 124.046 25.9C124.817 26.7613 125.825 27.192 127.072 27.192ZM145.11 31.272C142.594 31.272 140.611 30.4787 139.16 28.892C137.732 27.2827 137.018 25.1293 137.018 22.432C137.018 20.664 137.336 19.1113 137.97 17.774C138.628 16.4367 139.557 15.4053 140.758 14.68C141.96 13.9547 143.388 13.592 145.042 13.592C146.062 13.592 146.98 13.7733 147.796 14.136C148.635 14.476 149.304 14.952 149.802 15.564V13.864H154.528V31H149.802V29.198C149.349 29.8327 148.703 30.3427 147.864 30.728C147.026 31.0907 146.108 31.272 145.11 31.272ZM145.858 27.192C147.128 27.192 148.148 26.7613 148.918 25.9C149.689 25.016 150.074 23.86 150.074 22.432C150.074 20.9813 149.689 19.8253 148.918 18.964C148.148 18.08 147.128 17.638 145.858 17.638C144.612 17.638 143.603 18.08 142.832 18.964C142.062 19.8253 141.676 20.9813 141.676 22.432C141.676 23.86 142.062 25.016 142.832 25.9C143.603 26.7613 144.612 27.192 145.858 27.192ZM161.891 30.83L155.669 13.864H160.497L164.101 24.914L167.671 13.864H172.533L167.399 27.872L163.863 37.936H159.341L161.891 30.83Z" fill="#7130C3"/>
<mask id="path-2-inside-1_4014_536" fill="white">
<path fill-rule="evenodd" clip-rule="evenodd" d="M30.1733 30.1736C35.4055 27.5656 38.9998 22.1617 38.9998 15.9184C38.9998 7.12691 31.8729 0 23.0814 0C16.8381 0 11.4342 3.59425 8.82617 8.82643C10.9616 7.76198 13.37 7.16324 15.9181 7.16324C24.7096 7.16324 31.8365 14.2902 31.8365 23.0816C31.8365 25.6298 31.2378 28.0381 30.1733 30.1736Z"/>
</mask>
<path fill-rule="evenodd" clip-rule="evenodd" d="M30.1733 30.1736C35.4055 27.5656 38.9998 22.1617 38.9998 15.9184C38.9998 7.12691 31.8729 0 23.0814 0C16.8381 0 11.4342 3.59425 8.82617 8.82643C10.9616 7.76198 13.37 7.16324 15.9181 7.16324C24.7096 7.16324 31.8365 14.2902 31.8365 23.0816C31.8365 25.6298 31.2378 28.0381 30.1733 30.1736Z" fill="#CCCEEF"/>
<path d="M30.1733 30.1736L29.2784 29.7275L27.9455 32.4014L30.6195 31.0686L30.1733 30.1736ZM8.82617 8.82643L7.93119 8.38032L6.59833 11.0543L9.27228 9.72141L8.82617 8.82643ZM37.9998 15.9184C37.9998 21.768 34.6332 26.8332 29.7272 29.2786L30.6195 31.0686C36.1779 28.2979 39.9998 22.5554 39.9998 15.9184H37.9998ZM23.0814 1C31.3206 1 37.9998 7.67919 37.9998 15.9184H39.9998C39.9998 6.57462 32.4251 -1 23.0814 -1V1ZM9.72115 9.27254C12.1666 4.36662 17.2317 1 23.0814 1V-1C16.4444 -1 10.7019 2.82188 7.93119 8.38032L9.72115 9.27254ZM9.27228 9.72141C11.2723 8.72447 13.5282 8.16324 15.9181 8.16324V6.16324C13.2117 6.16324 10.651 6.79948 8.38006 7.93145L9.27228 9.72141ZM15.9181 8.16324C24.1573 8.16324 30.8365 14.8424 30.8365 23.0816H32.8365C32.8365 13.7379 25.2619 6.16324 15.9181 6.16324V8.16324ZM30.8365 23.0816C30.8365 25.4715 30.2753 27.7275 29.2784 29.7275L31.0683 30.6197C32.2003 28.3488 32.8365 25.7881 32.8365 23.0816H30.8365Z" fill="#070710" mask="url(#path-2-inside-1_4014_536)"/>
<mask id="path-4-inside-2_4014_536" fill="white">
<path fill-rule="evenodd" clip-rule="evenodd" d="M15.9184 38.9999C24.7099 38.9999 31.8368 31.873 31.8368 23.0815C31.8368 14.29 24.7099 7.16309 15.9184 7.16309C7.12691 7.16309 0 14.29 0 23.0815C0 26.4754 1.06216 29.6213 2.8722 32.2048C2.96194 32.0781 3.06547 31.955 3.18362 31.8369L10.3469 25.4695C9.55095 24.6736 7.95912 21.4899 7.56116 19.1022L23.4796 15.5205L19.8979 31.4389C17.5102 31.041 15.1224 29.8471 13.5306 28.6532L7.16322 35.8165C7.0447 35.935 6.92473 36.0406 6.80386 36.1338C9.38572 37.9401 12.5283 38.9999 15.9184 38.9999Z"/>
</mask>
<path fill-rule="evenodd" clip-rule="evenodd" d="M15.9184 38.9999C24.7099 38.9999 31.8368 31.873 31.8368 23.0815C31.8368 14.29 24.7099 7.16309 15.9184 7.16309C7.12691 7.16309 0 14.29 0 23.0815C0 26.4754 1.06216 29.6213 2.8722 32.2048C2.96194 32.0781 3.06547 31.955 3.18362 31.8369L10.3469 25.4695C9.55095 24.6736 7.95912 21.4899 7.56116 19.1022L23.4796 15.5205L19.8979 31.4389C17.5102 31.041 15.1224 29.8471 13.5306 28.6532L7.16322 35.8165C7.0447 35.935 6.92473 36.0406 6.80386 36.1338C9.38572 37.9401 12.5283 38.9999 15.9184 38.9999Z" fill="#CCCEEF"/>
<path d="M2.8722 32.2048L2.05321 32.7786L2.86802 33.9416L3.68843 32.7826L2.8722 32.2048ZM3.18362 31.8369L2.51925 31.0895L2.49729 31.109L2.47651 31.1298L3.18362 31.8369ZM10.3469 25.4695L11.0112 26.2169L11.8039 25.5123L11.054 24.7624L10.3469 25.4695ZM7.56116 19.1022L7.34164 18.1266L6.41935 18.3341L6.57476 19.2666L7.56116 19.1022ZM23.4796 15.5205L24.4552 15.74L24.8022 14.198L23.2601 14.5449L23.4796 15.5205ZM19.8979 31.4389L19.7335 32.4253L20.666 32.5807L20.8735 31.6584L19.8979 31.4389ZM13.5306 28.6532L14.1306 27.8532L13.3944 27.3011L12.7831 27.9888L13.5306 28.6532ZM7.16322 35.8165L7.87032 36.5236L7.8911 36.5028L7.91063 36.4808L7.16322 35.8165ZM6.80386 36.1338L6.19288 35.3422L5.1159 36.1734L6.23061 36.9532L6.80386 36.1338ZM30.8368 23.0815C30.8368 31.3207 24.1576 37.9999 15.9184 37.9999V39.9999C25.2622 39.9999 32.8368 32.4252 32.8368 23.0815H30.8368ZM15.9184 8.16309C24.1576 8.16309 30.8368 14.8423 30.8368 23.0815H32.8368C32.8368 13.7377 25.2622 6.16309 15.9184 6.16309V8.16309ZM1 23.0815C1 14.8423 7.67919 8.16309 15.9184 8.16309V6.16309C6.57462 6.16309 -1 13.7377 -1 23.0815H1ZM3.6912 31.631C1.99513 29.2102 1 26.2635 1 23.0815H-1C-1 26.6873 0.129187 30.0324 2.05321 32.7786L3.6912 31.631ZM2.47651 31.1298C2.31936 31.2869 2.17914 31.4531 2.05598 31.6271L3.68843 32.7826C3.74474 32.703 3.81159 32.6231 3.89072 32.544L2.47651 31.1298ZM9.68251 24.7221L2.51925 31.0895L3.84798 32.5843L11.0112 26.2169L9.68251 24.7221ZM6.57476 19.2666C6.79366 20.58 7.3285 22.0619 7.89572 23.2994C8.18193 23.9239 8.48449 24.5039 8.77325 24.9874C9.05141 25.4531 9.35097 25.8878 9.63977 26.1766L11.054 24.7624C10.9448 24.6533 10.7469 24.3915 10.4903 23.9619C10.2443 23.55 9.97483 23.0355 9.71385 22.4661C9.18667 21.3159 8.72661 20.0121 8.54755 18.9378L6.57476 19.2666ZM23.2601 14.5449L7.34164 18.1266L7.78067 20.0778L23.6991 16.4961L23.2601 14.5449ZM20.8735 31.6584L24.4552 15.74L22.504 15.301L18.9223 31.2194L20.8735 31.6584ZM12.9306 29.4532C14.625 30.724 17.1589 31.9962 19.7335 32.4253L20.0623 30.4525C17.8614 30.0857 15.6198 28.9702 14.1306 27.8532L12.9306 29.4532ZM7.91063 36.4808L14.278 29.3176L12.7831 27.9888L6.41581 35.1521L7.91063 36.4808ZM7.41483 36.9255C7.57121 36.8048 7.72314 36.6708 7.87032 36.5236L6.45611 35.1094C6.36626 35.1992 6.27826 35.2763 6.19288 35.3422L7.41483 36.9255ZM15.9184 37.9999C12.7399 37.9999 9.79638 37.007 7.3771 35.3145L6.23061 36.9532C8.97505 38.8733 12.3166 39.9999 15.9184 39.9999V37.9999Z" fill="#070710" mask="url(#path-4-inside-2_4014_536)"/>
<path opacity="0.4" fill-rule="evenodd" clip-rule="evenodd" d="M8.82725 8.82627C10.9627 7.76182 13.371 7.16309 15.9192 7.16309C24.7107 7.16309 31.8376 14.29 31.8376 23.0815C31.8376 25.6296 31.2389 28.038 30.1744 30.1734C28.0389 31.2379 25.6306 31.8366 23.0825 31.8366C14.291 31.8366 7.16406 24.7097 7.16406 15.9182C7.16406 13.3701 7.76279 10.9617 8.82725 8.82627Z" fill="#7130C3"/>
</svg>
