<svg viewBox="0 0 15 18" xmlns="http://www.w3.org/2000/svg">
<path d="M13.5079 13.0137L8.46803 13.5536C8.37585 13.5637 8.32819 13.4458 8.40163 13.3887L13.3336 9.54891C13.654 9.28719 13.8579 8.87938 13.7704 8.44266C13.6829 7.77313 13.1297 7.3364 12.4313 7.4239L7.07271 8.20828C6.97818 8.22235 6.92739 8.10125 7.00318 8.04344L12.3149 3.98797C13.3633 3.17313 13.4501 1.57156 12.4899 0.640315C11.6165 -0.233121 10.2188 -0.204214 9.34538 0.669222L0.785999 9.37391C0.465687 9.72312 0.320375 10.1887 0.407875 10.6841C0.553187 11.47 1.33912 11.9942 2.12584 11.8489L6.73989 10.9075C6.83989 10.8872 6.89458 11.0208 6.80786 11.0755L1.68834 14.352C1.04772 14.7598 0.757093 15.4872 0.960218 16.2153C1.16412 17.1762 2.12506 17.7294 3.05631 17.4965L10.7087 15.6114C10.7946 15.5903 10.8579 15.6903 10.8024 15.7591L9.60709 17.2341C9.28678 17.6419 9.811 18.195 10.2477 17.8747L14.1782 14.6434C14.8766 14.0614 14.411 12.9255 13.5086 13.013L13.5079 13.0137Z" fill="#CCCEEF"/>
</svg>
