<svg width="45" height="44" viewBox="0 0 45 44" fill="none" xmlns="http://www.w3.org/2000/svg">
<circle cx="22.1641" cy="22" r="22" fill="url(#paint0_linear_1481_6843)"/>
<path d="M28.2991 20.3L19.1116 11.1125L18.0241 10.025C17.6616 9.66249 17.0616 9.66249 16.6991 10.025C16.3366 10.3875 16.3366 10.9875 16.6991 11.35L17.7866 12.4375L10.7491 19.475C9.94909 20.275 9.52409 21.0875 9.49909 21.9C9.47409 22.7625 9.89909 23.625 10.7491 24.4875L15.7616 29.5C17.4366 31.1625 19.1116 31.1625 20.7741 29.5L28.2991 21.975C28.5491 21.725 28.6616 21.3875 28.6366 21.0625C28.6241 20.7875 28.4991 20.5 28.2991 20.3Z" fill="white"/>
<path d="M27 35.4375H10.75C10.2375 35.4375 9.8125 35.0125 9.8125 34.5C9.8125 33.9875 10.2375 33.5625 10.75 33.5625H27C27.5125 33.5625 27.9375 33.9875 27.9375 34.5C27.9375 35.0125 27.5125 35.4375 27 35.4375Z" fill="white"/>
<path d="M31.1875 25.475C30.8625 25.125 30.2625 25.125 29.9375 25.475C29.55 25.9 27.625 28.0625 27.625 29.7125C27.625 31.3375 28.9375 32.65 30.5625 32.65C32.1875 32.65 33.5 31.3375 33.5 29.7125C33.5 28.075 31.575 25.9 31.1875 25.475Z" fill="white"/>
<defs>
<linearGradient id="paint0_linear_1481_6843" x1="2.56407" y1="36.8" x2="30.6969" y2="-0.366128" gradientUnits="userSpaceOnUse">
<stop offset="0.058745" stop-color="#633F89"/>
<stop offset="0.489578" stop-color="#9D3EA6"/>
<stop offset="1" stop-color="#FB3AD4"/>
<stop offset="1" stop-color="#FF00EE" stop-opacity="0.26"/>
</linearGradient>
</defs>
</svg>
