<svg viewBox="0 0 33 25" xmlns="http://www.w3.org/2000/svg">
<path d="M24.7917 0.25C29.0949 0.25 32.5833 3.73845 32.5833 8.04167C32.5833 11.2201 30.9287 14.2954 28.4592 14.8888C27.5067 15.1177 26.748 16.3402 26.911 17.7357C27.1292 19.6035 28.8183 21.4906 32.1628 22.9778C32.9075 23.3089 32.5957 24.4291 31.787 24.3278C23.0709 23.2366 17.0291 17.5543 17.0001 9.51477C17 3.98582 20.2665 0.25 24.7917 0.25Z" fill="#CCCEEF"/>
<path d="M7.79156 0.25C12.0948 0.25 15.5832 3.73845 15.5832 8.04167C15.5832 11.2201 13.9286 14.2954 11.4591 14.8888C10.5066 15.1177 9.74794 16.3402 9.91095 17.7357C10.1291 19.6035 11.8182 21.4906 15.1627 22.9778C15.9074 23.3089 15.5956 24.4291 14.7869 24.3278C6.07077 23.2366 0.028985 17.5543 2.50293e-09 9.51477C-0.000104392 3.98582 3.26643 0.25 7.79156 0.25Z" fill="#CCCEEF"/>
</svg>
