<svg width="47" height="61" viewBox="0 0 47 61" fill="none" xmlns="http://www.w3.org/2000/svg">
<path d="M38.7163 0H8.2809C4.003 0 0.523438 3.47957 0.523438 7.75759V53.2425C0.523438 57.5206 4.003 61 8.2809 61H38.7163C42.9942 61 46.4736 57.5206 46.4736 53.2425V7.75759C46.4737 3.47957 42.9943 0 38.7163 0ZM6.68608 7.75759C6.68608 6.87793 7.40124 6.16265 8.2809 6.16265H38.7163C39.5959 6.16265 40.311 6.87793 40.311 7.75759V50.6105H6.68608V7.75759ZM20.5783 55.68C20.5783 54.0681 21.8862 52.7602 23.4992 52.7602C25.1098 52.7602 26.418 54.0682 26.418 55.68C26.418 57.2939 25.1098 58.6009 23.4992 58.6009C21.8862 58.6009 20.5783 57.2938 20.5783 55.68Z" fill="url(#paint0_linear_1481_7650)"/>
<path d="M19.5689 34.2379C19.6605 34.5031 19.8971 34.6909 20.1763 34.7209C20.4543 34.7486 20.7246 34.6158 20.8699 34.3755L22.5763 31.5584L27.8722 36.8546C28.0075 36.9896 28.1914 37.0648 28.383 37.0648C28.5746 37.0648 28.7586 36.9896 28.8941 36.8546L31.5407 34.2053C31.8226 33.9222 31.8226 33.4665 31.5407 33.1837L26.2458 27.8902L29.0655 26.1825C29.3046 26.0371 29.4399 25.7666 29.4096 25.4886C29.381 25.2085 29.1932 24.9733 28.9289 24.8803L15.9845 20.3732C15.7217 20.2832 15.4312 20.3483 15.2358 20.5461C15.0392 20.7414 14.973 21.032 15.063 21.2948L19.5689 34.2379Z" fill="#7B1BF3"/>
<defs>
<linearGradient id="paint0_linear_1481_7650" x1="49.8666" y1="-9.89465" x2="-11.1129" y2="3.281" gradientUnits="userSpaceOnUse">
<stop stop-color="#FF3BD4"/>
<stop offset="0.310786" stop-color="#7B1BF3"/>
<stop offset="0.549372" stop-color="#7B1BF3"/>
<stop offset="1" stop-color="#FC6500"/>
</linearGradient>
</defs>
</svg>
