<svg width="37" height="61" viewBox="0 0 37 61" fill="none" xmlns="http://www.w3.org/2000/svg">
<path d="M31.9899 0H5.00964C2.28292 0 0.0625 2.21949 0.0625 4.94728V56.0529C0.0625 58.7794 2.28292 61 5.00964 61H31.9899C34.7177 61 36.9371 58.7796 36.9371 56.0529V4.94728C36.9371 2.21949 34.7176 0 31.9899 0ZM4.36914 4.94728C4.36914 4.59414 4.6565 4.30677 5.00964 4.30677H31.9899C32.3431 4.30677 32.6304 4.59414 32.6304 4.94728V50.5021H4.36914V4.94728ZM15.5592 55.9058C15.5592 54.2829 16.8757 52.9662 18.4977 52.9662C20.1236 52.9662 21.44 54.2829 21.44 55.9058C21.44 57.5285 20.1236 58.8472 18.4977 58.8472C16.8757 58.8471 15.5592 57.5285 15.5592 55.9058Z" fill="url(#paint0_linear_1481_7658)"/>
<path d="M14.5728 33.3905C14.6644 33.6557 14.901 33.8435 15.1802 33.8734C15.4582 33.9012 15.7286 33.7683 15.8738 33.5281L17.5802 30.711L22.8761 36.0072C23.0114 36.1422 23.1953 36.2173 23.3869 36.2173C23.5785 36.2173 23.7625 36.1422 23.898 36.0072L26.5446 33.3579C26.8265 33.0748 26.8265 32.6191 26.5446 32.3363L21.2497 27.0428L24.0694 25.3351C24.3085 25.1897 24.4438 24.9192 24.4136 24.6412C24.3849 24.3611 24.1971 24.1258 23.9328 24.0329L10.9884 19.5258C10.7256 19.4358 10.4351 19.5009 10.2397 19.6986C10.0431 19.894 9.97689 20.1846 10.0669 20.4474L14.5728 33.3905Z" fill="#7B1BF3"/>
<defs>
<linearGradient id="paint0_linear_1481_7658" x1="39.6599" y1="-9.89465" x2="-10.0651" y2="-1.27275" gradientUnits="userSpaceOnUse">
<stop stop-color="#FF3BD4"/>
<stop offset="0.310786" stop-color="#7B1BF3"/>
<stop offset="0.549372" stop-color="#7B1BF3"/>
<stop offset="1" stop-color="#FC6500"/>
</linearGradient>
</defs>
</svg>
