<svg width="74" height="56" viewBox="0 0 74 56" fill="none" xmlns="http://www.w3.org/2000/svg">
<path fill-rule="evenodd" clip-rule="evenodd" d="M62.5833 46.1976H11.4224C8.39421 46.1976 5.92984 43.7347 5.92969 40.7051V5.9847C5.92969 2.95515 8.39406 0.492188 11.4224 0.492188H62.5833C65.6116 0.492188 68.0759 2.95515 68.0759 5.9847V40.7051C68.0759 43.7347 65.6116 46.1976 62.5833 46.1976ZM11.4224 5.58216C11.2 5.58216 11.0198 5.76357 11.0198 5.9847V40.7051C11.0198 40.9262 11.2 41.1077 11.4224 41.1077H62.5833C62.8056 41.1077 62.9858 40.9262 62.9858 40.7051V5.9847C62.9858 5.76357 62.8056 5.58216 62.5833 5.58216H11.4224ZM1.99708 48.2808H72.0029C73.1064 48.2808 74 49.1751 73.9998 50.2788C73.9998 53.1668 71.6587 55.5081 68.7693 55.5081H5.23041C2.34113 55.5081 0 53.1668 0 50.2788C0 49.1753 0.893603 48.2808 1.99708 48.2808Z" fill="url(#paint0_linear_1481_7640)"/>
<path d="M33.2108 28.8428C33.3017 29.106 33.5366 29.2924 33.8137 29.3221C34.0896 29.3497 34.3579 29.2178 34.5021 28.9793L36.1958 26.1833L41.4522 31.44C41.5865 31.574 41.769 31.6486 41.9592 31.6486C42.1494 31.6486 42.332 31.574 42.4665 31.44L45.0934 28.8104C45.3732 28.5294 45.3732 28.0771 45.0934 27.7964L39.8379 22.5424L42.6367 20.8475C42.8739 20.7031 43.0083 20.4346 42.9782 20.1587C42.9498 19.8807 42.7633 19.6472 42.5011 19.5549L29.6532 15.0814C29.3923 14.9921 29.1039 15.0567 28.91 15.253C28.7148 15.4469 28.6491 15.7353 28.7384 15.9961L33.2108 28.8428Z" fill="#7B1BF3"/>
<defs>
<linearGradient id="paint0_linear_1481_7640" x1="79.464" y1="-8.4318" x2="-10.0065" y2="26.0869" gradientUnits="userSpaceOnUse">
<stop stop-color="#FF3BD4"/>
<stop offset="0.310786" stop-color="#7B1BF3"/>
<stop offset="0.549372" stop-color="#7B1BF3"/>
<stop offset="1" stop-color="#FC6500"/>
</linearGradient>
</defs>
</svg>
