<svg width="51" height="50" viewBox="0 0 51 50" fill="none" xmlns="http://www.w3.org/2000/svg">
<circle cx="25.1641" cy="25" r="25" fill="url(#paint0_linear_1481_7561)"/>
<path d="M37.1121 22.5421C36.6729 22.3613 36.0917 22.2708 35.3683 22.2708H28.5483C26.3008 22.2708 25.5 23.0717 25.5 25.345V35.3425C25.5 36.0917 25.5904 36.6729 25.7842 37.125C26.1846 38.055 27.0371 38.4167 28.5483 38.4167H35.3683C37.6158 38.4167 38.4167 37.6029 38.4167 35.3425V25.345C38.4167 23.8079 38.055 22.9425 37.1121 22.5421ZM33.25 35.5104H30.6667C30.6408 35.5104 30.6021 35.5104 30.5763 35.4975C30.3825 35.4846 30.2146 35.42 30.0725 35.2908C29.84 35.1229 29.6979 34.8517 29.6979 34.5417C29.6979 34.0121 30.1371 33.5729 30.6667 33.5729H33.25C33.7796 33.5729 34.2188 34.0121 34.2188 34.5417C34.2188 35.0713 33.7796 35.5104 33.25 35.5104Z" fill="white"/>
<path d="M37.1115 17.9955V19.0417C37.1115 19.7521 36.5303 20.3334 35.8199 20.3334H28.5478C25.2411 20.3334 23.562 22.0255 23.562 25.345V37.125C23.562 37.8355 22.9807 38.4167 22.2703 38.4167H19.7515C19.2349 38.4167 18.8215 38.0034 18.8215 37.4996C18.8215 36.983 19.2349 36.5825 19.7515 36.5825H22.2703V31.6355H17.7495C14.882 31.4934 12.5957 29.1296 12.5957 26.2234V17.9955C12.5957 15.0117 15.024 12.5834 18.0207 12.5834H31.6995C34.6832 12.5834 37.1115 15.0117 37.1115 17.9955Z" fill="white"/>
<defs>
<linearGradient id="paint0_linear_1481_7561" x1="2.89134" y1="41.8182" x2="34.8605" y2="-0.416055" gradientUnits="userSpaceOnUse">
<stop offset="0.058745" stop-color="#633F89"/>
<stop offset="0.489578" stop-color="#9D3EA6"/>
<stop offset="1" stop-color="#FB3AD4"/>
<stop offset="1" stop-color="#FF00EE" stop-opacity="0.26"/>
</linearGradient>
</defs>
</svg>
