<svg width="50" height="50" viewBox="0 0 50 50" fill="none" xmlns="http://www.w3.org/2000/svg">
<circle cx="25" cy="25" r="25" fill="url(#paint0_linear_1481_7547)"/>
<path d="M34.375 12C32.6713 12 31.185 13.2083 30.8346 14.8517C30.7742 15.0933 30.75 15.3592 30.75 15.625C30.75 15.7338 30.75 15.8546 30.7742 15.9513C30.7983 16.0479 30.8346 16.1446 30.9071 16.2292L30.9312 16.2654L31.7771 15.4196C32.4779 14.7067 33.6258 14.7067 34.3387 15.4196C35.0396 16.1204 35.0396 17.2683 34.3387 17.9812L33.3237 18.9963C33.3962 19.0808 33.4929 19.1292 33.6138 19.1654C33.8554 19.2258 34.1092 19.25 34.375 19.25C36.3688 19.25 38 17.6188 38 15.625C38 13.6313 36.3688 12 34.375 12Z" fill="#222245"/>
<path d="M12.6429 22.875C12.5016 22.8726 12.3517 22.8678 12.2043 22.8508C11.872 22.8134 11.6352 22.5137 11.6727 22.1814C11.7113 21.8503 12.0062 21.6123 12.3421 21.651C12.4424 21.663 12.5451 21.6703 12.6405 21.6667C12.7118 21.6667 12.7795 21.6643 12.8459 21.657C13.1734 21.6304 13.4731 21.8685 13.5057 22.2008C13.5371 22.533 13.2942 22.8279 12.9619 22.8593C12.8556 22.8702 12.7505 22.875 12.6429 22.875ZM15.0451 21.6655C14.9194 21.6655 14.7926 21.6256 14.6838 21.5446C14.4168 21.344 14.3624 20.9658 14.563 20.6988C14.6633 20.5659 14.7491 20.4197 14.8204 20.2662L15.9248 20.7556C15.81 21.0045 15.6795 21.2232 15.5284 21.4238C15.41 21.5821 15.2288 21.6655 15.0451 21.6655ZM10.1634 21.6026C9.97373 21.6026 9.78765 21.5144 9.67044 21.3477C9.52544 21.1423 9.40098 20.9211 9.29948 20.6891C9.16778 20.3822 9.30794 20.027 9.61365 19.894C9.92178 19.7599 10.2758 19.9025 10.4087 20.2082C10.4764 20.3641 10.5598 20.5127 10.6552 20.6493C10.8486 20.9211 10.7845 21.2981 10.5114 21.4915C10.4063 21.5664 10.2843 21.6026 10.1634 21.6026ZM15.3943 18.6398C15.1611 18.6398 14.94 18.5045 14.8409 18.2785C14.7732 18.1238 14.6899 17.9764 14.5908 17.8399C14.3962 17.5692 14.4579 17.191 14.7297 16.9965C14.9992 16.8007 15.3786 16.8635 15.5732 17.1354C15.7194 17.3396 15.8462 17.5608 15.9477 17.7928C16.0807 18.0985 15.9417 18.4549 15.636 18.589C15.5574 18.6229 15.4753 18.6398 15.3943 18.6398ZM10.4341 18.2338L9.33936 17.7227C9.44086 17.5015 9.56773 17.2889 9.71273 17.0919C9.91332 16.8237 10.2903 16.7669 10.5586 16.9663C10.8268 17.1656 10.8824 17.5438 10.6842 17.8121C10.5876 17.9414 10.5042 18.084 10.4341 18.2338ZM12.9656 16.8515C12.9438 16.8515 12.9209 16.8503 12.8991 16.8478C12.7287 16.8285 12.5584 16.8261 12.3928 16.8442C12.0533 16.8756 11.7657 16.6328 11.7331 16.3017C11.7004 15.9694 11.9445 15.6733 12.2756 15.6419C12.5245 15.6178 12.7771 15.619 13.0308 15.6468C13.3619 15.683 13.6012 15.9815 13.5649 16.3138C13.5311 16.6231 13.2689 16.8515 12.9656 16.8515Z" fill="white"/>
<path d="M15.2147 18.2955C14.9984 18.2955 14.7894 18.1795 14.6806 17.9753C14.5236 17.6805 14.6347 17.3143 14.9296 17.1573L15.2063 17.0123C15.5023 16.86 15.866 16.976 16.0207 17.2733C16.1729 17.5705 16.0569 17.9342 15.7609 18.0877L15.4975 18.2242C15.4069 18.2726 15.3102 18.2955 15.2147 18.2955Z" fill="white"/>
<path d="M17.5032 17.2207C17.2652 17.2207 17.0392 17.0793 16.9438 16.8449C16.8169 16.5368 16.9655 16.184 17.2737 16.0571L17.8005 15.8481C18.1122 15.7272 18.4615 15.8819 18.5823 16.1936C18.7031 16.5054 18.5485 16.8546 18.2367 16.9754L17.7316 17.176C17.6567 17.2074 17.5794 17.2207 17.5032 17.2207ZM20.1253 16.3048C19.8631 16.3048 19.6215 16.1332 19.5453 15.8698C19.4523 15.5496 19.636 15.2149 19.9562 15.1206C20.1386 15.0675 20.3211 15.0167 20.5047 14.9684C20.8298 14.8814 21.1585 15.0735 21.2442 15.3961C21.33 15.7188 21.1391 16.0498 20.8165 16.1356C20.6413 16.1816 20.4673 16.2299 20.2933 16.2806C20.2377 16.2976 20.1809 16.3048 20.1253 16.3048ZM22.8296 15.6741C22.542 15.6741 22.287 15.4686 22.2351 15.175C22.1771 14.8476 22.3958 14.5334 22.7245 14.4742C22.9105 14.4403 23.099 14.4089 23.2863 14.3799C23.621 14.3328 23.9243 14.5551 23.9751 14.885C24.0258 15.2149 23.7999 15.523 23.47 15.5738C23.2912 15.6016 23.1135 15.6318 22.9347 15.6632C22.8997 15.6716 22.8646 15.6741 22.8296 15.6741ZM25.5858 15.3357C25.2716 15.3357 25.0058 15.0928 24.984 14.7738C24.9599 14.4416 25.2112 14.1516 25.5435 14.1286C25.7332 14.1153 25.9217 14.1044 26.1114 14.0948C26.4401 14.0742 26.7277 14.3352 26.7434 14.6699C26.7591 15.0034 26.5017 15.2862 26.1682 15.3019C25.9882 15.3103 25.8069 15.3212 25.6269 15.3333C25.6148 15.3345 25.6003 15.3357 25.5858 15.3357ZM28.9196 15.3188C28.9075 15.3188 28.8954 15.3188 28.8845 15.3176L28.3408 15.2922C28.0073 15.2801 27.7475 14.9986 27.7608 14.6651C27.7729 14.3316 28.0798 14.0646 28.3879 14.0851L28.9546 14.1117C29.2869 14.131 29.5419 14.4162 29.5225 14.7497C29.5044 15.0699 29.2386 15.3188 28.9196 15.3188Z" fill="white"/>
<path d="M31.4298 15.5886C31.3983 15.5886 31.3669 15.5862 31.3343 15.5814L31.0431 15.5379C30.7132 15.4907 30.4824 15.185 30.5295 14.8551C30.5767 14.5253 30.8788 14.2921 31.2123 14.3416L31.524 14.3887C31.8527 14.4407 32.0774 14.75 32.0255 15.0799C31.9783 15.3771 31.721 15.5886 31.4298 15.5886Z" fill="white"/>
<path d="M28.5 18.5L22.5 25V23.5L22 21.5L21.5 19.5L20 18L18 18.5V20.5C17.8333 21.1667 17.5 22.6 17.5 23C17.5 23.4 16.8333 24.5 16.5 25L15.5 27.5L15 30V32.5C15 32.9 15.6667 33.6667 16 34L18 37L20.5 39.5L24 40H26L27.5 39.5L29.5 38.5L33.5 34.5L34.5 33V32L34 31C33.8333 30.5 33.5 29.3 33.5 28.5V27.5L33 26.5L32.5 25.5L32 24.5L31.5 23.5L31 22.5C31.1667 22.1667 31.5 21.4 31.5 21C31.5 20.5 32 20.5 32 20C32 19.5 34 19 34.5 18.5C34.9 18.1 35.3333 17.3333 35.5 17L35 16.5L34 15H32.5L28.5 18.5Z" fill="white"/>
<path d="M24.7976 40.9987C22.6951 40.9987 20.4874 40.0115 18.5384 38.0673C18.5336 38.0625 18.5287 38.0576 18.5239 38.0528C18.5215 38.0504 18.5191 38.048 18.5166 38.0455L16.3924 35.9213C13.9431 33.4333 13.9081 29.957 16.2764 24.9798C17.6176 22.1608 17.5657 20.7905 17.5319 19.8831C17.5065 19.2221 17.4835 18.5974 18.1022 17.9787C18.3161 17.7649 19.4869 16.7982 21.5194 18.833C22.8159 20.1296 22.9754 22.04 22.8642 23.4694L31.3455 14.9881C32.288 14.0456 33.8202 14.0456 34.7639 14.9881C35.7064 15.9306 35.7064 17.4628 34.7639 18.4053L31.1184 22.0508C31.5231 22.1596 31.8953 22.3722 32.201 22.678C32.6578 23.1347 32.9091 23.7413 32.9091 24.3865C32.9091 24.7551 32.8269 25.1115 32.6723 25.433C33.1387 25.5248 33.5676 25.752 33.9096 26.0951C34.3664 26.5507 34.6177 27.1585 34.6177 27.8037C34.6177 28.449 34.3664 29.0567 33.9096 29.5123L33.68 29.7419C34.0776 29.847 34.4534 30.056 34.7639 30.3678C35.7052 31.3091 35.7052 32.8425 34.7639 33.785L29.6369 38.9119C28.2389 40.31 26.5545 40.9987 24.7976 40.9987ZM19.383 37.2033C21.7477 39.568 25.6241 41.2138 28.7657 38.0733L33.9084 32.9307C34.3796 32.4594 34.3796 31.6933 33.9084 31.2221C33.4371 30.7508 32.6699 30.752 32.1986 31.2221L30.9166 32.5041C30.6809 32.7397 30.2979 32.7397 30.0623 32.5041C29.9439 32.3857 29.8859 32.231 29.8859 32.0764C29.8859 31.9217 29.9451 31.767 30.0623 31.6486L33.0529 28.658C33.2813 28.4296 33.4069 28.1263 33.4069 27.8037C33.4069 27.4811 33.2813 27.1778 33.0529 26.9494C32.5961 26.4927 31.8011 26.4927 31.3443 26.9494L29.208 29.0857C28.9724 29.3214 28.5893 29.3214 28.3537 29.0857C28.2353 28.9673 28.1773 28.8127 28.1773 28.658C28.1773 28.5033 28.2365 28.3487 28.3537 28.2302L31.3443 25.2396C31.8156 24.7684 31.8156 24.0023 31.3443 23.5298C30.8876 23.0731 30.0925 23.0731 29.6357 23.5298L27.4994 25.6662C27.2638 25.9018 26.8807 25.9018 26.6451 25.6662C26.5267 25.5477 26.4687 25.3931 26.4687 25.2384C26.4687 25.0837 26.5279 24.9291 26.6451 24.8107L33.9084 17.5474C34.3796 17.0761 34.3796 16.31 33.9084 15.8388C33.4371 15.3675 32.6699 15.3675 32.1986 15.8388L22.3724 25.665C22.1767 25.8595 21.8734 25.8957 21.6366 25.7568C21.3997 25.6154 21.2874 25.3302 21.3671 25.0656C21.378 25.0294 22.4184 21.4382 20.6639 19.6837C19.696 18.7182 19.0966 18.6941 18.9565 18.833C18.7196 19.0687 18.7172 19.2233 18.7402 19.8372C18.7764 20.8002 18.8369 22.4121 17.3687 25.4994C15.2481 29.9557 15.2106 32.9983 17.2515 35.0706L19.383 37.2033Z" fill="white"/>
<defs>
<linearGradient id="paint0_linear_1481_7547" x1="4.09091" y1="50" x2="34.6394" y2="4.13032" gradientUnits="userSpaceOnUse">
<stop stop-color="#633F89"/>
<stop offset="0.60218" stop-color="#559516"/>
<stop offset="1" stop-color="#C5EA32"/>
<stop offset="1" stop-color="#FF00EE" stop-opacity="0.26"/>
</linearGradient>
</defs>
</svg>
