<svg width="51" height="50" viewBox="0 0 51 50" fill="none" xmlns="http://www.w3.org/2000/svg">
<circle cx="25.1641" cy="25" r="25" fill="url(#paint0_linear_1481_7567)"/>
<path d="M30.976 11.6666H20.0227C16.4577 11.6666 15.166 13 15.166 16.7466V33.2533C15.166 37 16.4577 38.3333 20.0227 38.3333H30.9631C34.541 38.3333 35.8327 37 35.8327 33.2533V16.7466C35.8327 13 34.541 11.6666 30.976 11.6666ZM25.4993 34.7333C24.2593 34.7333 23.2389 33.68 23.2389 32.4C23.2389 31.12 24.2593 30.0666 25.4993 30.0666C26.7393 30.0666 27.7598 31.12 27.7598 32.4C27.7598 33.68 26.7393 34.7333 25.4993 34.7333ZM28.0827 17.3333H22.916C22.3864 17.3333 21.9473 16.88 21.9473 16.3333C21.9473 15.7866 22.3864 15.3333 22.916 15.3333H28.0827C28.6123 15.3333 29.0514 15.7866 29.0514 16.3333C29.0514 16.88 28.6123 17.3333 28.0827 17.3333Z" fill="white"/>
<defs>
<linearGradient id="paint0_linear_1481_7567" x1="10.6186" y1="53.6364" x2="34.3214" y2="5.87409" gradientUnits="userSpaceOnUse">
<stop stop-color="#544463"/>
<stop offset="0.508486" stop-color="#9F533B"/>
<stop offset="1" stop-color="#FF6403"/>
</linearGradient>
</defs>
</svg>
