<svg width="45" height="44" viewBox="0 0 45 44" fill="none" xmlns="http://www.w3.org/2000/svg">
<circle cx="22.1641" cy="22" r="22" fill="url(#paint0_linear_1481_6837)"/>
<path d="M32.9169 27.1875V30.3125C32.9169 31.75 31.7502 32.9167 30.3127 32.9167H22.8752C21.9481 32.9167 21.4898 31.8021 22.1356 31.1458L28.2502 24.8958C28.4481 24.6979 28.719 24.5833 28.9898 24.5833H30.3127C31.7502 24.5833 32.9169 25.75 32.9169 27.1875Z" fill="white"/>
<path d="M29.1354 21.7604L26.3125 24.5833L23.75 27.1354C23.0938 27.7917 21.9688 27.3333 21.9688 26.4063C21.9688 23.0625 21.9688 17.5625 21.9688 17.5625C21.9688 17.2813 22.0833 17.0208 22.2708 16.8229L23.2292 15.8646C24.25 14.8438 25.8958 14.8438 26.9167 15.8646L29.125 18.0729C30.1563 19.0938 30.1563 20.7396 29.1354 21.7604Z" fill="white"/>
<path d="M17.8132 12.0833H14.6882C13.1257 12.0833 12.084 13.125 12.084 14.6875V28.75C12.084 29.0312 12.1152 29.3125 12.1673 29.5833C12.1986 29.7187 12.2298 29.8541 12.2715 29.9896C12.3236 30.1458 12.3757 30.3021 12.4382 30.4479C12.4486 30.4583 12.4486 30.4687 12.4486 30.4687C12.459 30.4687 12.459 30.4687 12.4486 30.4791C12.5944 30.7708 12.7611 31.0521 12.959 31.3125C13.0736 31.4479 13.1882 31.5729 13.3027 31.6979C13.4173 31.8229 13.5423 31.9271 13.6777 32.0312L13.6882 32.0416C13.9486 32.2396 14.2298 32.4062 14.5215 32.5521C14.5319 32.5416 14.5319 32.5416 14.5319 32.5521C14.6882 32.625 14.8444 32.6771 15.0111 32.7291C15.1465 32.7708 15.2819 32.8021 15.4173 32.8333C15.6882 32.8854 15.9694 32.9166 16.2507 32.9166C16.6777 32.9166 17.1152 32.8541 17.5215 32.7187C17.6361 32.6771 17.7507 32.6354 17.8652 32.5833C18.2298 32.4375 18.584 32.2291 18.8965 31.9583C18.9902 31.8854 19.0944 31.7916 19.1882 31.6979L19.2298 31.6562C19.959 30.9062 20.4173 29.875 20.4173 28.75V14.6875C20.4173 13.125 19.3757 12.0833 17.8132 12.0833ZM16.2507 30.3125C15.3861 30.3125 14.6882 29.6146 14.6882 28.75C14.6882 27.8854 15.3861 27.1875 16.2507 27.1875C17.1152 27.1875 17.8132 27.8854 17.8132 28.75C17.8132 29.6146 17.1152 30.3125 16.2507 30.3125Z" fill="white"/>
<defs>
<linearGradient id="paint0_linear_1481_6837" x1="9.36406" y1="47.2" x2="30.2225" y2="5.1692" gradientUnits="userSpaceOnUse">
<stop stop-color="#544463"/>
<stop offset="0.508486" stop-color="#9F533B"/>
<stop offset="1" stop-color="#FF6403"/>
</linearGradient>
</defs>
</svg>
