<svg width="72" height="55" viewBox="0 0 72 55" fill="none" xmlns="http://www.w3.org/2000/svg">
<rect x="0.75" y="1.25" width="70.5" height="52.5" rx="5.25" stroke="url(#paint0_linear_1481_9108)" stroke-width="1.5"/>
<circle cx="41.9961" cy="28.1" r="12" fill="#7B1BF3"/>
<mask id="path-3-inside-1_1481_9108" fill="white">
<path d="M27.5977 41.3C24.4151 41.3 21.3628 39.9093 19.1124 37.4338C16.8619 34.9584 15.5977 31.6009 15.5977 28.1C15.5977 24.5992 16.8619 21.2417 19.1124 18.7662C21.3628 16.2907 24.4151 14.9 27.5977 14.9V17.0429C24.9317 17.0429 22.375 18.2078 20.4899 20.2815C18.6048 22.3551 17.5457 25.1675 17.5457 28.1C17.5457 31.0326 18.6048 33.845 20.4899 35.9186C22.375 37.9922 24.9317 39.1571 27.5977 39.1571L27.5977 41.3Z"/>
</mask>
<path d="M27.5977 41.3C24.4151 41.3 21.3628 39.9093 19.1124 37.4338C16.8619 34.9584 15.5977 31.6009 15.5977 28.1C15.5977 24.5992 16.8619 21.2417 19.1124 18.7662C21.3628 16.2907 24.4151 14.9 27.5977 14.9V17.0429C24.9317 17.0429 22.375 18.2078 20.4899 20.2815C18.6048 22.3551 17.5457 25.1675 17.5457 28.1C17.5457 31.0326 18.6048 33.845 20.4899 35.9186C22.375 37.9922 24.9317 39.1571 27.5977 39.1571L27.5977 41.3Z" fill="#7B1BF3" stroke="#7B1BF3" stroke-width="3" mask="url(#path-3-inside-1_1481_9108)"/>
<defs>
<linearGradient id="paint0_linear_1481_9108" x1="79.8125" y1="9.35822" x2="-1.0355" y2="8.01433" gradientUnits="userSpaceOnUse">
<stop stop-color="#FF3BD4"/>
<stop offset="0.310786" stop-color="#7B1BF3"/>
<stop offset="0.549372" stop-color="#7B1BF3"/>
<stop offset="0.981432" stop-color="#FC6500"/>
</linearGradient>
</defs>
</svg>
