<svg width="60" height="66" viewBox="0 0 60 66" fill="none" xmlns="http://www.w3.org/2000/svg">
<path d="M55.3565 31.9464L37.9349 49.368L33.1836 44.0887L50.0772 27.1951L55.3565 31.9464Z" fill="#222245"/>
<path d="M19.4544 17.1644H4.14453V15.5806L21.0382 2.38245V15.0527L19.4544 17.1644Z" fill="#222245"/>
<path fill-rule="evenodd" clip-rule="evenodd" d="M18.5012 15.8456H6.09435L11.7617 11.3116L19.7238 4.94199V14.6233C19.7238 15.2983 19.1763 15.8456 18.5012 15.8456ZM22.1687 14.6233V3.62081H44.1731C44.8482 3.62081 45.3955 4.16828 45.3955 4.84337V29.9217L32.0456 43.2716C32.0378 43.2794 32.0301 43.2873 32.0226 43.2952L30.4411 44.877C30.2879 45.0299 30.1783 45.2209 30.1231 45.4302L28.2708 52.4689C28.1601 52.8894 28.2811 53.337 28.5887 53.6446C28.8961 53.952 29.3437 54.0731 29.7642 53.9624L36.803 52.11C37.0122 52.0548 37.2032 51.9452 37.3561 51.7923L38.9616 50.1869L38.9688 50.1796L38.9846 50.1633L45.3955 43.7524V61.0769C45.3955 61.7519 44.8482 62.2992 44.1731 62.2992H5.05419C4.37909 62.2992 3.83184 61.7519 3.83184 61.0769V18.2905H18.5012C20.5267 18.2905 22.1687 16.6485 22.1687 14.6233ZM34.6392 44.1356L38.0969 47.5933L53.6543 32.0358L50.1968 28.5782L47.7101 31.0648C47.5922 31.2984 47.4015 31.4891 47.1679 31.607L34.6392 44.1356ZM32.4034 46.372L32.9103 45.8651L36.368 49.3229L35.8612 49.8297L31.1685 51.0646L32.4034 46.372ZM47.8406 4.84337V27.4766L49.2793 26.0379C49.2957 26.0194 49.3128 26.0012 49.3306 25.9834L51.0595 24.2545C52.4918 22.8223 54.8139 22.8223 56.2459 24.2545L57.4132 25.4218L57.9748 25.9834C59.4071 27.4155 59.4071 29.7376 57.9748 31.1698L56.3005 32.8442C56.284 32.8628 56.2669 32.8809 56.2491 32.8987L47.8251 41.3227C47.8353 41.3861 47.8406 41.4511 47.8406 41.5174V61.0766C47.8406 63.1021 46.1986 64.7441 44.1731 64.7441H5.05419C3.02868 64.7441 1.38672 63.1021 1.38672 61.0769V17.0681V17.0681C1.38672 16.9759 1.39714 16.8849 1.41725 16.7966C1.47725 16.5331 1.62425 16.2904 1.84542 16.1134L1.84551 16.1133L20.1825 1.44396C20.2761 1.36909 20.3785 1.30959 20.4862 1.26588C20.6313 1.20688 20.7874 1.1759 20.9462 1.1759H44.1731C46.1986 1.1759 47.8406 2.81787 47.8406 4.84337ZM55.3831 30.3038L56.2459 29.441C56.7234 28.9637 56.7234 28.1896 56.2459 27.7121L54.5173 25.9834C54.0398 25.5059 53.2659 25.5059 52.7884 25.9834L51.9255 26.8463L55.3831 30.3038ZM18.5026 28.0703H11.1679C10.4932 28.0703 9.94531 27.5224 9.94531 26.8477C9.94531 26.1731 10.4932 25.6252 11.1679 25.6252H18.5026C19.1772 25.6252 19.7252 26.1731 19.7252 26.8477C19.7252 27.5224 19.1772 28.0703 18.5026 28.0703ZM11.1679 34.1825H35.6171C36.2918 34.1825 36.8397 33.6348 36.8397 32.9601C36.8397 32.2855 36.2918 31.7376 35.6171 31.7376H11.1679C10.4932 31.7376 9.94531 32.2855 9.94531 32.9601C9.94531 33.6348 10.4932 34.1825 11.1679 34.1825ZM30.7273 40.2948H11.1679C10.4932 40.2948 9.94531 39.7471 9.94531 39.0725C9.94531 38.3976 10.4932 37.8499 11.1679 37.8499H30.7273C31.402 37.8499 31.9497 38.3976 31.9497 39.0725C31.9497 39.7471 31.402 40.2948 30.7273 40.2948ZM11.1679 46.4072H27.0599C27.7345 46.4072 28.2824 45.8595 28.2824 45.1847C28.2824 44.51 27.7345 43.9623 27.0599 43.9623H11.1679C10.4932 43.9623 9.94531 44.51 9.94531 45.1847C9.94531 45.8595 10.4932 46.4072 11.1679 46.4072ZM24.615 52.5196H11.1679C10.4932 52.5196 9.94531 51.9717 9.94531 51.297C9.94531 50.6224 10.4932 50.0747 11.1679 50.0747H24.615C25.2896 50.0747 25.8375 50.6224 25.8375 51.297C25.8375 51.9717 25.2896 52.5196 24.615 52.5196Z" fill="#7B1BF3"/>
<path d="M6.09435 15.8456L5.84447 15.5332L4.95405 16.2456H6.09435V15.8456ZM11.7617 11.3116L11.5119 10.9992L11.5119 10.9993L11.7617 11.3116ZM19.7238 4.94199H20.1238V4.10974L19.4739 4.62964L19.7238 4.94199ZM22.1687 3.62081V3.22081H21.7687V3.62081H22.1687ZM45.3955 29.9217L45.6783 30.2046L45.7955 30.0874V29.9217H45.3955ZM32.0456 43.2716L32.3284 43.5545L32.3285 43.5544L32.0456 43.2716ZM32.0226 43.2952L32.3056 43.5782L32.3128 43.5705L32.0226 43.2952ZM30.4411 44.877L30.7237 45.16L30.7239 45.1598L30.4411 44.877ZM30.1231 45.4302L29.7363 45.3281L29.7363 45.3284L30.1231 45.4302ZM28.2708 52.4689L28.6576 52.5708L28.6576 52.5707L28.2708 52.4689ZM28.5887 53.6446L28.8716 53.3618L28.8716 53.3618L28.5887 53.6446ZM29.7642 53.9624L29.6624 53.5755L29.6624 53.5756L29.7642 53.9624ZM36.803 52.11L36.9048 52.4969L36.905 52.4968L36.803 52.11ZM38.9616 50.1869L39.2444 50.4697L39.2456 50.4685L38.9616 50.1869ZM38.9688 50.1796L39.2528 50.4613L39.2565 50.4575L38.9688 50.1796ZM38.9846 50.1633L38.7017 49.8804L38.6969 49.8854L38.9846 50.1633ZM45.3955 43.7524H45.7955V42.7867L45.1126 43.4695L45.3955 43.7524ZM3.83184 18.2905V17.8905H3.43184V18.2905H3.83184ZM38.0969 47.5933L37.8141 47.8762L38.0969 48.159L38.3798 47.8762L38.0969 47.5933ZM34.6392 44.1356L34.3563 43.8527L34.0735 44.1356L34.3563 44.4184L34.6392 44.1356ZM53.6543 32.0358L53.9372 32.3186L54.22 32.0358L53.9372 31.7529L53.6543 32.0358ZM50.1968 28.5782L50.4796 28.2954L50.1968 28.0125L49.9139 28.2954L50.1968 28.5782ZM47.7101 31.0648L47.4273 30.7819L47.382 30.8273L47.3531 30.8845L47.7101 31.0648ZM47.1679 31.607L46.9876 31.25L46.9304 31.2789L46.8851 31.3242L47.1679 31.607ZM32.9103 45.8651L33.1931 45.5823L32.9103 45.2994L32.6274 45.5823L32.9103 45.8651ZM32.4034 46.372L32.1206 46.0891L32.0441 46.1656L32.0166 46.2702L32.4034 46.372ZM36.368 49.3229L36.6509 49.6057L36.9337 49.3229L36.6509 49.04L36.368 49.3229ZM35.8612 49.8297L35.963 50.2166L36.0675 50.189L36.144 50.1126L35.8612 49.8297ZM31.1685 51.0646L30.7817 50.9628L30.6072 51.626L31.2703 51.4514L31.1685 51.0646ZM47.8406 27.4766H47.4406V28.4423L48.1234 27.7595L47.8406 27.4766ZM49.2793 26.0379L49.5621 26.3208L49.5707 26.3122L49.5787 26.3032L49.2793 26.0379ZM49.3306 25.9834L49.6134 26.2663L49.6135 26.2663L49.3306 25.9834ZM51.0595 24.2545L51.3423 24.5374H51.3423L51.0595 24.2545ZM56.2459 24.2545L55.9631 24.5373L55.9631 24.5374L56.2459 24.2545ZM57.4132 25.4218L57.6961 25.1389L57.6961 25.1389L57.4132 25.4218ZM57.9748 25.9834L57.692 26.2662L57.692 26.2663L57.9748 25.9834ZM57.9748 31.1698L58.2577 31.4527L57.9748 31.1698ZM56.3005 32.8442L56.0176 32.5613L56.0091 32.5699L56.0011 32.5789L56.3005 32.8442ZM56.2491 32.8987L56.532 33.1816L56.532 33.1816L56.2491 32.8987ZM47.8251 41.3227L47.5423 41.0398L47.3978 41.1843L47.4302 41.386L47.8251 41.3227ZM1.41725 16.7966L1.80725 16.8855L1.80727 16.8854L1.41725 16.7966ZM1.84542 16.1134L1.68065 15.7489L1.63479 15.7696L1.5955 15.8011L1.84542 16.1134ZM1.84551 16.1133L2.01028 16.4778L2.05611 16.4571L2.09539 16.4257L1.84551 16.1133ZM20.1825 1.44396L20.4324 1.75631L20.4325 1.75627L20.1825 1.44396ZM20.4862 1.26588L20.6366 1.6365L20.6368 1.63643L20.4862 1.26588ZM56.2459 29.441L55.9632 29.158L55.9631 29.1581L56.2459 29.441ZM55.3831 30.3038L55.1002 30.5867L55.3831 30.8695L55.6659 30.5867L55.3831 30.3038ZM56.2459 27.7121L55.9631 27.9949H55.9631L56.2459 27.7121ZM54.5173 25.9834L54.2344 26.2663L54.5173 25.9834ZM52.7884 25.9834L53.0712 26.2663L53.0712 26.2663L52.7884 25.9834ZM51.9255 26.8463L51.6427 26.5634L51.3598 26.8463L51.6427 27.1291L51.9255 26.8463ZM6.09435 16.2456H18.5012V15.4456H6.09435V16.2456ZM11.5119 10.9993L5.84447 15.5332L6.34423 16.1579L12.0116 11.6239L11.5119 10.9993ZM19.4739 4.62964L11.5119 10.9992L12.0116 11.6239L19.9736 5.25434L19.4739 4.62964ZM20.1238 14.6233V4.94199H19.3238V14.6233H20.1238ZM18.5012 16.2456C19.3971 16.2456 20.1238 15.5194 20.1238 14.6233H19.3238C19.3238 15.0773 18.9555 15.4456 18.5012 15.4456V16.2456ZM21.7687 3.62081V14.6233H22.5687V3.62081H21.7687ZM44.1731 3.22081H22.1687V4.02081H44.1731V3.22081ZM45.7955 4.84337C45.7955 3.94746 45.0692 3.22081 44.1731 3.22081V4.02081C44.6272 4.02081 44.9955 4.3891 44.9955 4.84337H45.7955ZM45.7955 29.9217V4.84337H44.9955V29.9217H45.7955ZM32.3285 43.5544L45.6783 30.2046L45.1126 29.6389L31.7628 42.9887L32.3285 43.5544ZM32.3128 43.5705C32.318 43.5651 32.3232 43.5597 32.3284 43.5545L31.7628 42.9887C31.7525 42.9991 31.7423 43.0095 31.7324 43.02L32.3128 43.5705ZM30.7239 45.1598L32.3055 43.5781L31.7397 43.0124L30.1582 44.5942L30.7239 45.1598ZM30.5098 45.5323C30.5471 45.3911 30.6209 45.2627 30.7237 45.16L30.1584 44.5939C29.9549 44.7972 29.8095 45.0507 29.7363 45.3281L30.5098 45.5323ZM28.6576 52.5707L30.5099 45.532L29.7363 45.3284L27.8839 52.3671L28.6576 52.5707ZM28.8716 53.3618C28.6645 53.1547 28.5831 52.8536 28.6576 52.5708L27.8839 52.3671C27.737 52.9253 27.8977 53.5193 28.3059 53.9275L28.8716 53.3618ZM29.6624 53.5756C29.3795 53.65 29.0784 53.5686 28.8716 53.3618L28.3059 53.9275C28.7139 54.3355 29.3079 54.4961 29.866 54.3492L29.6624 53.5756ZM36.7012 51.7232L29.6624 53.5755L29.866 54.3492L36.9048 52.4969L36.7012 51.7232ZM37.0733 51.5095C36.9706 51.6122 36.842 51.686 36.7009 51.7233L36.905 52.4968C37.1824 52.4236 37.4359 52.2783 37.639 52.0751L37.0733 51.5095ZM38.6787 49.904L37.0733 51.5095L37.639 52.0751L39.2444 50.4697L38.6787 49.904ZM38.6847 49.898L38.6775 49.9052L39.2456 50.4685L39.2528 50.4613L38.6847 49.898ZM38.6969 49.8854L38.6811 49.9017L39.2565 50.4575L39.2722 50.4412L38.6969 49.8854ZM45.1126 43.4695L38.7017 49.8804L39.2674 50.4461L45.6783 44.0352L45.1126 43.4695ZM45.7955 61.0769V43.7524H44.9955V61.0769H45.7955ZM44.1731 62.6992C45.0691 62.6992 45.7955 61.9729 45.7955 61.0769H44.9955C44.9955 61.531 44.6273 61.8992 44.1731 61.8992V62.6992ZM5.05419 62.6992H44.1731V61.8992H5.05419V62.6992ZM3.43184 61.0769C3.43184 61.9729 4.15818 62.6992 5.05419 62.6992V61.8992C4.60001 61.8992 4.23184 61.531 4.23184 61.0769H3.43184ZM3.43184 18.2905V61.0769H4.23184V18.2905H3.43184ZM18.5012 17.8905H3.83184V18.6905H18.5012V17.8905ZM21.7687 14.6233C21.7687 16.4276 20.3058 17.8905 18.5012 17.8905V18.6905C20.7476 18.6905 22.5687 16.8695 22.5687 14.6233H21.7687ZM38.3798 47.3105L34.922 43.8527L34.3563 44.4184L37.8141 47.8762L38.3798 47.3105ZM53.3715 31.7529L37.8141 47.3105L38.3798 47.8762L53.9372 32.3186L53.3715 31.7529ZM49.9139 28.8611L53.3715 32.3186L53.9372 31.7529L50.4796 28.2954L49.9139 28.8611ZM47.993 31.3476L50.4796 28.8611L49.9139 28.2954L47.4273 30.7819L47.993 31.3476ZM47.3482 31.9641C47.6581 31.8076 47.9108 31.555 48.0672 31.2451L47.3531 30.8845C47.2737 31.0418 47.1449 31.1705 46.9876 31.25L47.3482 31.9641ZM34.922 44.4184L47.4507 31.8899L46.8851 31.3242L34.3563 43.8527L34.922 44.4184ZM32.6274 45.5823L32.1206 46.0891L32.6862 46.6548L33.1931 46.1479L32.6274 45.5823ZM36.6509 49.04L33.1931 45.5823L32.6274 46.148L36.0852 49.6057L36.6509 49.04ZM36.144 50.1126L36.6509 49.6057L36.0852 49.04L35.5783 49.5469L36.144 50.1126ZM31.2703 51.4514L35.963 50.2166L35.7594 49.4429L31.0667 50.6778L31.2703 51.4514ZM32.0166 46.2702L30.7817 50.9628L31.5553 51.1664L32.7902 46.4738L32.0166 46.2702ZM48.2406 27.4766V4.84337H47.4406V27.4766H48.2406ZM48.9964 25.7551L47.5577 27.1938L48.1234 27.7595L49.5621 26.3208L48.9964 25.7551ZM49.0478 25.7006C49.0243 25.7241 49.0017 25.7481 48.9799 25.7727L49.5787 26.3032C49.5898 26.2906 49.6014 26.2783 49.6134 26.2663L49.0478 25.7006ZM50.7767 23.9717L49.0478 25.7006L49.6135 26.2663L51.3423 24.5374L50.7767 23.9717ZM56.5288 23.9717C54.9405 22.3832 52.3651 22.3832 50.7767 23.9717L51.3423 24.5374C52.6184 23.2613 54.6872 23.2613 55.9631 24.5373L56.5288 23.9717ZM57.6961 25.1389L56.5288 23.9717L55.9631 24.5374L57.1304 25.7046L57.6961 25.1389ZM58.2577 25.7006L57.6961 25.1389L57.1304 25.7046L57.692 26.2662L58.2577 25.7006ZM58.2577 31.4527C59.8461 29.8642 59.8462 27.2888 58.2576 25.7005L57.692 26.2663C58.968 27.5421 58.968 29.6109 57.692 30.887L58.2577 31.4527ZM56.5833 33.127L58.2577 31.4527L57.692 30.887L56.0176 32.5613L56.5833 33.127ZM56.532 33.1816C56.5554 33.1581 56.578 33.1341 56.5998 33.1094L56.0011 32.5789C55.99 32.5914 55.9784 32.6038 55.9663 32.6159L56.532 33.1816ZM48.108 41.6055L56.532 33.1816L55.9663 32.6159L47.5423 41.0398L48.108 41.6055ZM48.2406 41.5174C48.2406 41.4299 48.2336 41.3436 48.2201 41.2594L47.4302 41.386C47.437 41.4286 47.4406 41.4724 47.4406 41.5174H48.2406ZM48.2406 61.0766V41.5174H47.4406V61.0766H48.2406ZM44.1731 65.1441C46.4195 65.1441 48.2406 63.323 48.2406 61.0766H47.4406C47.4406 62.8812 45.9777 64.3441 44.1731 64.3441V65.1441ZM5.05419 65.1441H44.1731V64.3441H5.05419V65.1441ZM0.986719 61.0769C0.986719 63.3231 2.80779 65.1441 5.05419 65.1441V64.3441C3.24958 64.3441 1.78672 62.8812 1.78672 61.0769H0.986719ZM0.986719 17.0681V61.0769H1.78672V17.0681H0.986719ZM0.986719 17.0681V17.0681H1.78672V17.0681H0.986719ZM1.02725 16.7078C1.00055 16.8249 0.986719 16.9457 0.986719 17.0681H1.78672C1.78672 17.006 1.79373 16.9448 1.80725 16.8855L1.02725 16.7078ZM1.5955 15.8011C1.30193 16.036 1.1068 16.3583 1.02723 16.7079L1.80727 16.8854C1.8477 16.7078 1.94658 16.5447 2.09534 16.4257L1.5955 15.8011ZM1.68074 15.7489L1.68065 15.7489L2.01019 16.4779L2.01028 16.4778L1.68074 15.7489ZM19.9327 1.13161L1.59563 15.801L2.09539 16.4257L20.4324 1.75631L19.9327 1.13161ZM20.3357 0.895258C20.1927 0.953325 20.0567 1.03234 19.9326 1.13165L20.4325 1.75627C20.4955 1.70583 20.5643 1.66586 20.6366 1.6365L20.3357 0.895258ZM20.9462 0.775903C20.7353 0.775903 20.5281 0.817049 20.3355 0.895329L20.6368 1.63643C20.7345 1.59672 20.8395 1.5759 20.9462 1.5759V0.775903ZM44.1731 0.775903H20.9462V1.5759H44.1731V0.775903ZM48.2406 4.84337C48.2406 2.59696 46.4195 0.775903 44.1731 0.775903V1.5759C45.9777 1.5759 47.4406 3.03878 47.4406 4.84337H48.2406ZM55.9631 29.1581L55.1002 30.021L55.6659 30.5867L56.5288 29.7238L55.9631 29.1581ZM55.9631 27.9949C56.2844 28.3162 56.2843 28.837 55.9632 29.158L56.5287 29.7239C57.1625 29.0903 57.1624 28.0629 56.5288 27.4292L55.9631 27.9949ZM54.2344 26.2663L55.9631 27.9949L56.5288 27.4292L54.8001 25.7006L54.2344 26.2663ZM53.0712 26.2663C53.3925 25.945 53.9131 25.945 54.2344 26.2663L54.8001 25.7006C54.1664 25.0669 53.1392 25.0669 52.5055 25.7006L53.0712 26.2663ZM52.2084 27.1291L53.0712 26.2663L52.5055 25.7006L51.6427 26.5634L52.2084 27.1291ZM55.6659 30.021L52.2084 26.5634L51.6427 27.1291L55.1002 30.5867L55.6659 30.021ZM11.1679 28.4703H18.5026V27.6703H11.1679V28.4703ZM9.54531 26.8477C9.54531 27.7433 10.2723 28.4703 11.1679 28.4703V27.6703C10.7141 27.6703 10.3453 27.3015 10.3453 26.8477H9.54531ZM11.1679 25.2252C10.2723 25.2252 9.54531 25.9522 9.54531 26.8477H10.3453C10.3453 26.394 10.7141 26.0252 11.1679 26.0252V25.2252ZM18.5026 25.2252H11.1679V26.0252H18.5026V25.2252ZM20.1252 26.8477C20.1252 25.9522 19.3982 25.2252 18.5026 25.2252V26.0252C18.9563 26.0252 19.3252 26.394 19.3252 26.8477H20.1252ZM18.5026 28.4703C19.3982 28.4703 20.1252 27.7433 20.1252 26.8477H19.3252C19.3252 27.3015 18.9563 27.6703 18.5026 27.6703V28.4703ZM35.6171 33.7825H11.1679V34.5825H35.6171V33.7825ZM36.4397 32.9601C36.4397 33.4138 36.071 33.7825 35.6171 33.7825V34.5825C36.5126 34.5825 37.2397 33.8558 37.2397 32.9601H36.4397ZM35.6171 32.1376C36.0709 32.1376 36.4397 32.5064 36.4397 32.9601H37.2397C37.2397 32.0646 36.5127 31.3376 35.6171 31.3376V32.1376ZM11.1679 32.1376H35.6171V31.3376H11.1679V32.1376ZM10.3453 32.9601C10.3453 32.5064 10.7141 32.1376 11.1679 32.1376V31.3376C10.2723 31.3376 9.54531 32.0646 9.54531 32.9601H10.3453ZM11.1679 33.7825C10.714 33.7825 10.3453 33.4138 10.3453 32.9601H9.54531C9.54531 33.8558 10.2724 34.5825 11.1679 34.5825V33.7825ZM11.1679 40.6948H30.7273V39.8948H11.1679V40.6948ZM9.54531 39.0725C9.54531 39.9681 10.2724 40.6948 11.1679 40.6948V39.8948C10.714 39.8948 10.3453 39.5261 10.3453 39.0725H9.54531ZM11.1679 37.4499C10.2724 37.4499 9.54531 38.1766 9.54531 39.0725H10.3453C10.3453 38.6186 10.7141 38.2499 11.1679 38.2499V37.4499ZM30.7273 37.4499H11.1679V38.2499H30.7273V37.4499ZM32.3497 39.0725C32.3497 38.1767 31.623 37.4499 30.7273 37.4499V38.2499C31.181 38.2499 31.5497 38.6185 31.5497 39.0725H32.3497ZM30.7273 40.6948C31.6229 40.6948 32.3497 39.968 32.3497 39.0725H31.5497C31.5497 39.5262 31.1811 39.8948 30.7273 39.8948V40.6948ZM27.0599 46.0072H11.1679V46.8072H27.0599V46.0072ZM27.8824 45.1847C27.8824 45.6386 27.5137 46.0072 27.0599 46.0072V46.8072C27.9554 46.8072 28.6824 46.0805 28.6824 45.1847H27.8824ZM27.0599 44.3623C27.5137 44.3623 27.8824 44.731 27.8824 45.1847H28.6824C28.6824 44.289 27.9553 43.5623 27.0599 43.5623V44.3623ZM11.1679 44.3623H27.0599V43.5623H11.1679V44.3623ZM10.3453 45.1847C10.3453 44.731 10.714 44.3623 11.1679 44.3623V43.5623C10.2724 43.5623 9.54531 44.289 9.54531 45.1847H10.3453ZM11.1679 46.0072C10.7141 46.0072 10.3453 45.6386 10.3453 45.1847H9.54531C9.54531 46.0805 10.2724 46.8072 11.1679 46.8072V46.0072ZM11.1679 52.9196H24.615V52.1196H11.1679V52.9196ZM9.54531 51.297C9.54531 52.1926 10.2723 52.9196 11.1679 52.9196V52.1196C10.7141 52.1196 10.3453 51.7508 10.3453 51.297H9.54531ZM11.1679 49.6747C10.2724 49.6747 9.54531 50.4014 9.54531 51.297H10.3453C10.3453 50.8434 10.714 50.4747 11.1679 50.4747V49.6747ZM24.615 49.6747H11.1679V50.4747H24.615V49.6747ZM26.2375 51.297C26.2375 50.4014 25.5104 49.6747 24.615 49.6747V50.4747C25.0688 50.4747 25.4375 50.8434 25.4375 51.297H26.2375ZM24.615 52.9196C25.5105 52.9196 26.2375 52.1926 26.2375 51.297H25.4375C25.4375 51.7508 25.0687 52.1196 24.615 52.1196V52.9196Z" fill="#222245"/>
<path d="M50.5 26.5L55 31.5C55.1667 31.6667 55.5 31.9 55.5 31.5C55.5 31 56 31 56.5 31C57 31 57 30.5 57.5 30L58.5 29L58 28L57 26.5C56.6667 26.1667 55.9 25.5 55.5 25.5C55 25.5 55 24.5 54.5 24.5H53.5L50.5 26.5Z" fill="#7B1BF3"/>
<path fill-rule="evenodd" clip-rule="evenodd" d="M18.5012 18.2906C20.5267 18.2906 22.1687 16.6486 22.1687 14.6233C22.1687 10.4502 22.1687 2.39856 22.1687 2.39856C22.1687 1.92855 21.8993 1.50034 21.4757 1.2968C21.0522 1.09326 20.5494 1.15047 20.1825 1.44401L1.84542 16.1134C1.4401 16.4378 1.28387 16.9828 1.45572 17.4727C1.62758 17.9627 2.09011 18.2906 2.60919 18.2906H18.5012ZM19.7238 4.94205L6.09424 15.8457H18.5012C19.1763 15.8457 19.7238 15.2984 19.7238 14.6233V4.94205Z" fill="url(#paint0_linear_1481_9086)" stroke="#222245" stroke-width="0.8"/>
<path fill-rule="evenodd" clip-rule="evenodd" d="M3.83184 17.6556V61.0769C3.83184 61.7519 4.37909 62.2992 5.05419 62.2992H44.1731C44.8482 62.2992 45.3955 61.7519 45.3955 61.0769C45.3955 55.3441 45.3955 41.5174 45.3955 41.5174C45.3955 40.8425 45.9434 40.2948 46.618 40.2948C47.2927 40.2948 47.8406 40.8425 47.8406 41.5174V61.0766C47.8406 63.1021 46.1986 64.7441 44.1731 64.7441C36.4696 64.7441 12.7577 64.7441 5.05419 64.7441C3.02868 64.7441 1.38672 63.1021 1.38672 61.0769C1.38672 51.5005 1.38672 17.0681 1.38672 17.0681C1.38672 16.6967 1.55571 16.3455 1.84551 16.1133L20.1826 1.44392C20.3994 1.27052 20.6687 1.1759 20.9462 1.1759H44.1731C46.1986 1.1759 47.8406 2.81787 47.8406 4.84337V30.5152C47.8406 31.1899 47.2927 31.7376 46.618 31.7376C45.9434 31.7376 45.3955 31.1899 45.3955 30.5152C45.3955 30.5152 45.3955 11.6832 45.3955 4.84337C45.3955 4.16828 44.8482 3.62081 44.1731 3.62081H21.375L3.83184 17.6556Z" fill="url(#paint1_linear_1481_9086)" stroke="#222245" stroke-width="0.8"/>
<defs>
<linearGradient id="paint0_linear_1481_9086" x1="24.4236" y1="3.98362" x2="1.08673" y2="3.63033" gradientUnits="userSpaceOnUse">
<stop stop-color="#FF3BD4"/>
<stop offset="0.310786" stop-color="#7B1BF3"/>
<stop offset="0.549372" stop-color="#7B1BF3"/>
<stop offset="0.981432" stop-color="#FC6500"/>
</linearGradient>
<linearGradient id="paint1_linear_1481_9086" x1="52.8812" y1="11.6037" x2="0.708539" y2="11.1284" gradientUnits="userSpaceOnUse">
<stop stop-color="#FF3BD4"/>
<stop offset="0.310786" stop-color="#7B1BF3"/>
<stop offset="0.549372" stop-color="#7B1BF3"/>
<stop offset="0.981432" stop-color="#FC6500"/>
</linearGradient>
</defs>
</svg>
