<svg width="73" height="54" viewBox="0 0 73 54" fill="none" xmlns="http://www.w3.org/2000/svg">
<mask id="path-1-inside-1_1481_9253" fill="white">
<path d="M1.17773 54L35.3229 0H56.5164V7.51304L27.081 54"/>
</mask>
<path d="M1.17773 54L35.3229 0H56.5164V7.51304L27.081 54" fill="#222245"/>
<path d="M35.3229 0V-1.5H34.4967L34.0551 -0.801659L35.3229 0ZM56.5164 0H58.0164V-1.5H56.5164V0ZM56.5164 7.51304L57.7838 8.3155L58.0164 7.94801V7.51304H56.5164ZM2.44554 54.8017L36.5907 0.801659L34.0551 -0.801659L-0.0900759 53.1983L2.44554 54.8017ZM35.3229 1.5H56.5164V-1.5H35.3229V1.5ZM55.0164 0V7.51304H58.0164V0H55.0164ZM55.2491 6.71059L25.8137 53.1975L28.3483 54.8025L57.7838 8.3155L55.2491 6.71059Z" fill="url(#paint0_linear_1481_9253)" mask="url(#path-1-inside-1_1481_9253)"/>
<path d="M55.7658 53.25H36.0723V0.75H55.7658V53.25Z" fill="#222245" stroke="url(#paint1_linear_1481_9253)" stroke-width="1.5"/>
<path d="M71.8221 38.7391C71.8221 47.1676 64.9695 54 56.5156 54V23.4783C64.9695 23.4783 71.8221 30.3104 71.8221 38.7391Z" fill="#7B1BF3"/>
<path d="M56.5152 54C48.0613 54 41.209 47.1676 41.209 38.7391C41.209 30.3104 48.0613 23.4783 56.5152 23.4783V54Z" fill="#222245"/>
<path d="M68.2898 11.739C68.2898 18.2213 63.0197 23.4783 56.5156 23.4783V0C63.0197 0 68.2898 5.25674 68.2898 11.739Z" fill="#7B1BF3"/>
<path d="M56.5161 23.4783C50.0121 23.4783 44.7422 18.2213 44.7422 11.739C44.7422 5.25674 50.0121 0 56.5161 0V23.4783Z" fill="#222245"/>
<path d="M2.35547 10.5652C2.35547 4.73087 7.10047 0 12.9522 0C18.804 0 23.549 4.73087 23.549 10.5652C23.549 16.3996 18.804 21.1304 12.9522 21.1304C7.10047 21.1304 2.35547 16.3996 2.35547 10.5652Z" fill="#7B1BF3"/>
<defs>
<linearGradient id="paint0_linear_1481_9253" x1="62.5211" y1="8.85822" x2="0.37483" y2="8.06425" gradientUnits="userSpaceOnUse">
<stop stop-color="#FF3BD4"/>
<stop offset="0.310786" stop-color="#7B1BF3"/>
<stop offset="0.549372" stop-color="#7B1BF3"/>
<stop offset="0.981432" stop-color="#FC6500"/>
</linearGradient>
<linearGradient id="paint1_linear_1481_9253" x1="58.8155" y1="8.85822" x2="35.0115" y2="8.74175" gradientUnits="userSpaceOnUse">
<stop stop-color="#FF3BD4"/>
<stop offset="0.310786" stop-color="#7B1BF3"/>
<stop offset="0.549372" stop-color="#7B1BF3"/>
<stop offset="0.981432" stop-color="#FC6500"/>
</linearGradient>
</defs>
</svg>
