<svg width="65" height="65" viewBox="0 0 65 65" fill="none" xmlns="http://www.w3.org/2000/svg">
<g clip-path="url(#clip0_1481_9044)">
<path d="M32.5008 1.2998C15.2695 1.2998 1.30078 15.2685 1.30078 32.4998C1.30078 49.7311 15.2695 63.6998 32.5008 63.6998C49.7321 63.6998 63.7008 49.7311 63.7008 32.4998L32.5008 1.2998Z" stroke="url(#paint0_linear_1481_9044)" stroke-width="1.5"/>
<path d="M32.5 32V2.5V2L61.5 30L63 32.5L32.5 33V32Z" fill="#222245"/>
<path d="M32.5 1.53198V32.732H63.7L32.5 1.53198Z" stroke="url(#paint1_linear_1481_9044)" stroke-width="1.5" stroke-linecap="round" stroke-linejoin="round"/>
<path d="M18.3242 40.1171C17.1109 40.1171 16.144 40.4258 15.4398 41.0108C14.7357 41.585 14.3836 42.369 14.3836 43.3874C14.3836 43.8749 14.4648 44.3 14.6273 44.6468C14.8007 44.9934 15.0268 45.2913 15.2977 45.5405C15.5793 45.7896 15.8948 45.9969 16.2523 46.1702C16.6207 46.3327 16.9998 46.4763 17.3898 46.6171C17.7798 46.7471 18.1224 46.8825 18.4258 47.0233C18.7291 47.1533 18.9918 47.3077 19.1977 47.4702C19.4143 47.6219 19.5768 47.8033 19.6852 47.9983C19.8043 48.1933 19.868 48.4181 19.868 48.6889C19.868 49.1439 19.696 49.496 19.3602 49.7452C19.0243 49.9944 18.4921 50.1108 17.7555 50.1108C17.0513 50.1108 16.446 50.0296 15.9477 49.8671C15.4493 49.7046 15.062 49.5421 14.7695 49.3796L14.1602 51.0655C14.2902 51.1413 14.4716 51.2321 14.6883 51.3296C14.9049 51.4163 15.1473 51.4867 15.4398 51.5733C15.7432 51.66 16.0966 51.7425 16.4758 51.7968C16.8658 51.8618 17.2896 51.8983 17.7555 51.8983C19.1421 51.8983 20.1889 51.618 20.9039 51.0655C21.6297 50.5021 22.0008 49.7073 22.0008 48.6889C22.0008 48.1581 21.9087 47.7167 21.757 47.3483C21.6054 46.9692 21.3995 46.6442 21.107 46.3733C20.8254 46.0917 20.4733 45.8371 20.0508 45.6421C19.6391 45.4363 19.1597 45.248 18.6289 45.053C18.3256 44.9446 18.0358 44.8269 17.7758 44.7077C17.5266 44.5885 17.3208 44.4625 17.1258 44.3218C16.9416 44.1809 16.7872 44.0279 16.6789 43.8546C16.5814 43.6704 16.5367 43.4538 16.5367 43.2046C16.5367 42.7929 16.6803 42.4571 16.9836 42.2296C17.2978 42.0021 17.7311 41.9046 18.2836 41.9046C18.7494 41.9046 19.2112 41.9585 19.6445 42.0671C20.0887 42.1754 20.4949 42.3284 20.8633 42.5343L21.493 40.8686C21.1788 40.6845 20.7455 40.5125 20.193 40.3608C19.6513 40.1983 19.0284 40.1171 18.3242 40.1171ZM38.4133 40.1171C37.1999 40.1171 36.2331 40.4258 35.5289 41.0108C34.8247 41.585 34.4727 42.369 34.4727 43.3874C34.4727 43.8749 34.5539 44.3 34.7164 44.6468C34.8897 44.9934 35.1159 45.2913 35.3867 45.5405C35.6684 45.7896 35.9839 45.9969 36.3414 46.1702C36.7097 46.3327 37.0889 46.4763 37.4789 46.6171C37.8689 46.7471 38.2115 46.8825 38.5148 47.0233C38.8182 47.1533 39.0809 47.3077 39.2867 47.4702C39.5034 47.6219 39.6659 47.8033 39.7742 47.9983C39.8934 48.1933 39.957 48.4181 39.957 48.6889C39.957 49.1439 39.785 49.496 39.4492 49.7452C39.1134 49.9944 38.5812 50.1108 37.8445 50.1108C37.1404 50.1108 36.535 50.0296 36.0367 49.8671C35.5384 49.7046 35.1511 49.5421 34.8586 49.3796L34.2492 51.0655C34.3792 51.1413 34.5607 51.2321 34.7773 51.3296C34.994 51.4163 35.2364 51.4867 35.5289 51.5733C35.8322 51.66 36.1857 51.7425 36.5648 51.7968C36.9548 51.8618 37.3787 51.8983 37.8445 51.8983C39.2312 51.8983 40.278 51.618 40.993 51.0655C41.7188 50.5021 42.0898 49.7073 42.0898 48.6889C42.0898 48.1581 41.9978 47.7167 41.8461 47.3483C41.6944 46.9692 41.4886 46.6442 41.1961 46.3733C40.9144 46.0917 40.5623 45.8371 40.1398 45.6421C39.7282 45.4363 39.2488 45.248 38.718 45.053C38.4146 44.9446 38.1248 44.8269 37.8648 44.7077C37.6157 44.5885 37.4098 44.4625 37.2148 44.3218C37.0307 44.1809 36.8763 44.0279 36.768 43.8546C36.6705 43.6704 36.6258 43.4538 36.6258 43.2046C36.6258 42.7929 36.7693 42.4571 37.0727 42.2296C37.3868 42.0021 37.8202 41.9046 38.3727 41.9046C38.8385 41.9046 39.3003 41.9585 39.7336 42.0671C40.1778 42.1754 40.584 42.3284 40.9523 42.5343L41.582 40.8686C41.2679 40.6845 40.8345 40.5125 40.282 40.3608C39.7404 40.1983 39.1174 40.1171 38.4133 40.1171ZM47.168 40.1171C45.9546 40.1171 44.9878 40.4258 44.2836 41.0108C43.5794 41.585 43.2273 42.369 43.2273 43.3874C43.2273 43.8749 43.3086 44.3 43.4711 44.6468C43.6444 44.9934 43.8706 45.2913 44.1414 45.5405C44.4231 45.7896 44.7386 45.9969 45.0961 46.1702C45.4644 46.3327 45.8436 46.4763 46.2336 46.6171C46.6236 46.7471 46.9865 46.8825 47.2898 47.0233C47.5932 47.1533 47.8356 47.3077 48.0414 47.4702C48.2581 47.6219 48.4206 47.8033 48.5289 47.9983C48.6481 48.1933 48.7117 48.4181 48.7117 48.6889C48.7117 49.1439 48.5397 49.496 48.2039 49.7452C47.8681 49.9944 47.3359 50.1108 46.5992 50.1108C45.8951 50.1108 45.2897 50.0296 44.7914 49.8671C44.2931 49.7046 43.9058 49.5421 43.6133 49.3796L43.0039 51.0655C43.1339 51.1413 43.3154 51.2321 43.532 51.3296C43.7487 51.4163 43.9911 51.4867 44.2836 51.5733C44.5869 51.66 44.9404 51.7425 45.3195 51.7968C45.7095 51.8618 46.1334 51.8983 46.5992 51.8983C47.9859 51.8983 49.0326 51.618 49.7477 51.0655C50.4735 50.5021 50.8445 49.7073 50.8445 48.6889C50.8445 48.1581 50.7728 47.7167 50.6211 47.3483C50.4694 46.9692 50.2433 46.6442 49.9508 46.3733C49.6691 46.0917 49.317 45.8371 48.8945 45.6421C48.4829 45.4363 48.0035 45.248 47.4727 45.053C47.1693 44.9446 46.8998 44.8269 46.6398 44.7077C46.3907 44.5885 46.1645 44.4625 45.9695 44.3218C45.7854 44.1809 45.631 44.0279 45.5227 43.8546C45.4252 43.6704 45.3805 43.4538 45.3805 43.2046C45.3805 42.7929 45.524 42.4571 45.8273 42.2296C46.1415 42.0021 46.5748 41.9046 47.1273 41.9046C47.5932 41.9046 48.0549 41.9585 48.4883 42.0671C48.9324 42.1754 49.3387 42.3284 49.707 42.5343L50.3367 40.8686C50.0225 40.6845 49.5892 40.5125 49.0367 40.3608C48.495 40.1983 47.8721 40.1171 47.168 40.1171ZM27.018 40.3811C26.6388 41.1828 26.2583 41.9953 25.9008 42.8186C25.5433 43.6419 25.1925 44.5086 24.8242 45.4186C24.4667 46.3286 24.0862 47.305 23.707 48.3233C23.3279 49.3417 22.9311 50.4521 22.5086 51.6546H24.6414L25.0883 50.3546C25.2508 49.9104 25.4241 49.4486 25.5758 48.9936H30.3086C30.4603 49.4486 30.6133 49.9009 30.7758 50.3343C30.9383 50.7675 31.1116 51.2104 31.2633 51.6546H33.457C33.0345 50.4521 32.6283 49.3417 32.2383 48.3233C31.8591 47.305 31.4894 46.3286 31.1211 45.4186C30.7636 44.5086 30.402 43.6419 30.0445 42.8186C29.687 41.9953 29.3268 41.1828 28.9477 40.3811H27.018ZM27.932 42.5546C28.1704 43.1071 28.4602 43.8125 28.7852 44.6468C29.1102 45.4809 29.4541 46.3842 29.8008 47.3483H26.0836C26.4303 46.3842 26.7647 45.4904 27.0789 44.6671C27.4039 43.8438 27.6829 43.1288 27.932 42.5546Z" fill="#7B1BF3"/>
</g>
<defs>
<linearGradient id="paint0_linear_1481_9044" x1="70.4716" y1="11.536" x2="0.394879" y2="10.6623" gradientUnits="userSpaceOnUse">
<stop stop-color="#FF3BD4"/>
<stop offset="0.310786" stop-color="#7B1BF3"/>
<stop offset="0.549372" stop-color="#7B1BF3"/>
<stop offset="0.981432" stop-color="#FC6500"/>
</linearGradient>
<linearGradient id="paint1_linear_1481_9044" x1="67.0854" y1="6.65007" x2="32.047" y2="6.21325" gradientUnits="userSpaceOnUse">
<stop stop-color="#FF3BD4"/>
<stop offset="0.310786" stop-color="#7B1BF3"/>
<stop offset="0.549372" stop-color="#7B1BF3"/>
<stop offset="0.981432" stop-color="#FC6500"/>
</linearGradient>
<clipPath id="clip0_1481_9044">
<rect width="65" height="65" fill="white"/>
</clipPath>
</defs>
</svg>
