<svg width="64" height="64" viewBox="0 0 64 64" fill="none" xmlns="http://www.w3.org/2000/svg">
<circle cx="16.502" cy="18.5" r="3.5" fill="#7B1BF3"/>
<circle cx="11.502" cy="29.5" r="3.5" fill="#7B1BF3"/>
<circle cx="28.502" cy="13.5" r="3.5" fill="#7B1BF3"/>
<circle cx="44.502" cy="17.5" r="3.5" fill="#7B1BF3"/>
<circle cx="32.002" cy="32" r="31.25" stroke="url(#paint0_linear_1481_9003)" stroke-width="1.5"/>
<path d="M31.9181 21.5C25.3479 21.5 20.002 26.8459 20.002 33.4161C20.002 39.9864 25.3479 45.3323 31.9181 45.3323C34.8737 45.3323 37.578 44.2455 39.6629 42.4571L40.7907 43.585L39.5196 44.8525C39.3478 45.0244 39.2513 45.2575 39.2513 45.5006C39.2513 45.7436 39.3478 45.9767 39.5196 46.1486L47.2286 53.8576C48.0851 54.7141 49.5015 54.7141 50.358 53.8576L52.3596 51.8561C53.2161 50.9995 53.2161 49.5832 52.3596 48.7267L44.6506 41.0177C44.4787 40.8458 44.2456 40.7493 44.0025 40.7493C43.7594 40.7493 43.5263 40.8458 43.3544 41.0177L42.0869 42.2888L40.959 41.1609C42.7475 39.076 43.8342 36.3718 43.8342 33.4161C43.8342 26.8459 38.4883 21.5 31.9181 21.5ZM31.9181 23.3333C37.4976 23.3333 42.001 27.8367 42.001 33.4161C42.001 38.9956 37.4976 43.499 31.9181 43.499C26.3386 43.499 21.8352 38.9956 21.8352 33.4161C21.8352 27.8367 26.3386 23.3333 31.9181 23.3333ZM44.0025 42.9619L51.0634 50.0228C51.2194 50.1788 51.2194 50.404 51.0634 50.5599L49.0619 52.5614C48.9059 52.7174 48.6807 52.7174 48.5248 52.5614L41.4639 45.5006L44.0025 42.9619Z" fill="#7B1BF3"/>
<path d="M36.7704 30.0185L32.8351 33.9538L31.1916 32.3102C30.5882 31.7068 29.5821 31.7068 28.9787 32.3102L25.7704 35.5185C25.5985 35.6904 25.502 35.9236 25.502 36.1667C25.502 36.4097 25.5985 36.6429 25.7704 36.8148C25.9423 36.9866 26.1754 37.0832 26.4185 37.0832C26.6616 37.0832 26.8947 36.9866 27.0666 36.8148L30.0851 33.7962L31.7287 35.4398C32.3321 36.0432 33.3382 36.0432 33.9416 35.4398L38.0666 31.3148C38.2385 31.1429 38.335 30.9097 38.335 30.6667C38.335 30.4236 38.2385 30.1904 38.0666 30.0185C37.8947 29.8467 37.6616 29.7501 37.4185 29.7501C37.1754 29.7501 36.9423 29.8467 36.7704 30.0185Z" fill="#7B1BF3"/>
<defs>
<linearGradient id="paint0_linear_1481_9003" x1="70.9464" y1="10.4986" x2="-0.927178" y2="9.6026" gradientUnits="userSpaceOnUse">
<stop stop-color="#FF3BD4"/>
<stop offset="0.310786" stop-color="#7B1BF3"/>
<stop offset="0.549372" stop-color="#7B1BF3"/>
<stop offset="0.981432" stop-color="#FC6500"/>
</linearGradient>
</defs>
</svg>
