<svg width="61" height="62" viewBox="0 0 61 62" fill="none" xmlns="http://www.w3.org/2000/svg">
<mask id="path-1-outside-1_1481_9016" maskUnits="userSpaceOnUse" x="0.0273438" y="0" width="61" height="62" fill="black">
<rect fill="white" x="0.0273438" width="61" height="62"/>
<path fill-rule="evenodd" clip-rule="evenodd" d="M2.40133 7.02904C2.40133 4.46237 4.48982 2.37393 7.05652 2.37393H54.4651C57.0318 2.37393 59.1203 4.46233 59.1203 7.02904L59.1203 13.6283L2.40134 13.6283L2.40133 7.02904ZM1.02744 14.3271L1.02734 54.9709C1.02734 58.295 3.73133 61 7.05652 61H54.4651C57.7891 61 60.4943 58.295 60.4943 54.9709L60.4942 7.02911C60.4942 3.70388 57.7893 1 54.4651 1H7.05645C3.73122 1 1.02746 3.70388 1.02746 7.02911L1.02744 14.3037C1.02738 14.3076 1.02734 14.3114 1.02734 14.3153C1.02734 14.3192 1.02738 14.3232 1.02744 14.3271ZM2.40135 15.0023H59.1203L59.1202 54.9708C59.1202 57.5375 57.0318 59.6259 54.4651 59.6259H7.05644C4.48974 59.6259 2.40144 57.5375 2.40144 54.9708L2.40135 15.0023Z"/>
</mask>
<path fill-rule="evenodd" clip-rule="evenodd" d="M2.40133 7.02904C2.40133 4.46237 4.48982 2.37393 7.05652 2.37393H54.4651C57.0318 2.37393 59.1203 4.46233 59.1203 7.02904L59.1203 13.6283L2.40134 13.6283L2.40133 7.02904ZM1.02744 14.3271L1.02734 54.9709C1.02734 58.295 3.73133 61 7.05652 61H54.4651C57.7891 61 60.4943 58.295 60.4943 54.9709L60.4942 7.02911C60.4942 3.70388 57.7893 1 54.4651 1H7.05645C3.73122 1 1.02746 3.70388 1.02746 7.02911L1.02744 14.3037C1.02738 14.3076 1.02734 14.3114 1.02734 14.3153C1.02734 14.3192 1.02738 14.3232 1.02744 14.3271ZM2.40135 15.0023H59.1203L59.1202 54.9708C59.1202 57.5375 57.0318 59.6259 54.4651 59.6259H7.05644C4.48974 59.6259 2.40144 57.5375 2.40144 54.9708L2.40135 15.0023Z" fill="url(#paint0_linear_1481_9016)"/>
<path d="M2.40133 7.02904H2.30133V7.02904L2.40133 7.02904ZM59.1203 7.02904H59.2203H59.1203ZM59.1203 13.6283V13.7283H59.2203V13.6283H59.1203ZM2.40134 13.6283H2.30134L2.30134 13.7283H2.40134L2.40134 13.6283ZM1.02734 54.9709H0.927344H1.02734ZM1.02744 14.3271H1.12746L1.12743 14.3254L1.02744 14.3271ZM60.4943 54.9709H60.5943H60.4943ZM60.4942 7.02911H60.3942V7.02911L60.4942 7.02911ZM1.02746 7.02911L1.12746 7.02911V7.02911H1.02746ZM1.02744 14.3037L1.12744 14.3054L1.12744 14.3037H1.02744ZM1.02734 14.3153L0.927344 14.3153V14.3153H1.02734ZM59.1203 15.0023H59.2203V14.9023H59.1203V15.0023ZM2.40135 15.0023V14.9023H2.30135L2.30135 15.0023H2.40135ZM59.1202 54.9708H59.0202H59.1202ZM2.40144 54.9708H2.50144H2.40144ZM7.05652 2.27393C4.43459 2.27393 2.30133 4.40714 2.30133 7.02904H2.50133C2.50133 4.5176 4.54504 2.47393 7.05652 2.47393V2.27393ZM54.4651 2.27393H7.05652V2.47393H54.4651V2.27393ZM59.2203 7.02904C59.2203 4.4071 57.087 2.27393 54.4651 2.27393V2.47393C56.9766 2.47393 59.0203 4.51757 59.0203 7.02904H59.2203ZM59.2203 13.6283L59.2203 7.02904H59.0203L59.0203 13.6283H59.2203ZM2.40134 13.7283L59.1203 13.7283V13.5283L2.40134 13.5283L2.40134 13.7283ZM2.30133 7.02904L2.30134 13.6283H2.50134L2.50133 7.02904L2.30133 7.02904ZM1.12734 54.9709L1.12744 14.3271H0.927443L0.927344 54.9709H1.12734ZM7.05652 60.9C3.78657 60.9 1.12734 58.2397 1.12734 54.9709H0.927344C0.927344 58.3502 3.67609 61.1 7.05652 61.1V60.9ZM54.4651 60.9H7.05652V61.1H54.4651V60.9ZM60.3943 54.9709C60.3943 58.2397 57.7339 60.9 54.4651 60.9V61.1C57.8444 61.1 60.5943 58.3502 60.5943 54.9709H60.3943ZM60.3942 7.02911L60.3943 54.9709H60.5943L60.5942 7.02911L60.3942 7.02911ZM54.4651 1.1C57.7341 1.1 60.3942 3.75912 60.3942 7.02911H60.5942C60.5942 3.64864 57.8445 0.9 54.4651 0.9V1.1ZM7.05645 1.1H54.4651V0.9H7.05645V1.1ZM1.12746 7.02911C1.12746 3.7591 3.78645 1.1 7.05645 1.1V0.9C3.67599 0.9 0.927461 3.64865 0.927461 7.02911H1.12746ZM1.12744 14.3037L1.12746 7.02911L0.927461 7.02911L0.927443 14.3037H1.12744ZM1.12734 14.3153C1.12734 14.312 1.12737 14.3087 1.12743 14.3054L0.927457 14.302C0.927383 14.3064 0.927345 14.3109 0.927344 14.3153L1.12734 14.3153ZM1.12743 14.3254C1.12737 14.322 1.12734 14.3187 1.12734 14.3153H0.927344C0.927344 14.3198 0.927382 14.3243 0.927457 14.3288L1.12743 14.3254ZM59.1203 14.9023H2.40135V15.1023H59.1203V14.9023ZM59.2202 54.9708L59.2203 15.0023H59.0203L59.0202 54.9708H59.2202ZM54.4651 59.7259C57.087 59.7259 59.2202 57.5928 59.2202 54.9708H59.0202C59.0202 57.4823 56.9766 59.5259 54.4651 59.5259V59.7259ZM7.05644 59.7259H54.4651V59.5259H7.05644V59.7259ZM2.30144 54.9708C2.30144 57.5928 4.4345 59.7259 7.05644 59.7259V59.5259C4.54497 59.5259 2.50144 57.4823 2.50144 54.9708H2.30144ZM2.30135 15.0023L2.30144 54.9708H2.50144L2.50135 15.0023H2.30135Z" fill="url(#paint1_linear_1481_9016)" mask="url(#path-1-outside-1_1481_9016)"/>
<path d="M8.89902 9.04716V9.14716H8.99902H13.5146H13.6146V9.04716V6.95395V6.85395H13.5146H8.99902H8.89902V6.95395V9.04716ZM14.2016 10.3211H8.31205C7.98793 10.3211 7.725 10.0592 7.725 9.73413L7.72504 6.26697C7.72504 5.94289 7.98798 5.67996 8.31201 5.67996H14.2016C14.5256 5.67996 14.7886 5.9429 14.7886 6.26697V9.73413C14.7886 10.0593 14.5257 10.3211 14.2016 10.3211Z" fill="#7B1BF3" stroke="#7B1BF3" stroke-width="0.2"/>
<rect x="9.1" y="6.1" width="4.8" height="3.8" fill="#7B1BF3" stroke="#7B1BF3" stroke-width="0.2"/>
<path d="M19.2232 9.04716V9.14716H19.3232H23.8377H23.9377V9.04716V6.95395V6.85395H23.8377H19.3232H19.2232V6.95395V9.04716ZM24.5247 10.3211H18.6363C18.3111 10.3211 18.0492 10.0594 18.0492 9.73413L18.0493 6.26697C18.0493 5.94278 18.3111 5.67996 18.6362 5.67996H24.5247C24.8486 5.67996 25.1116 5.94289 25.1116 6.26697L25.1117 9.73413C25.1117 10.0592 24.8487 10.3211 24.5247 10.3211Z" fill="#7B1BF3" stroke="#7B1BF3" stroke-width="0.2"/>
<rect x="19.1" y="6.1" width="4.8" height="3.8" fill="#7B1BF3" stroke="#7B1BF3" stroke-width="0.2"/>
<rect x="29.1" y="6.1" width="5.8" height="3.8" fill="#7B1BF3" stroke="#7B1BF3" stroke-width="0.2"/>
<path d="M29.5475 9.04716V9.14716H29.6475H34.1619H34.2619V9.04716V6.95395V6.85395H34.1619H29.6475H29.5475V6.95395V9.04716ZM34.8489 10.3211H28.9605C28.6364 10.3211 28.3734 10.0592 28.3734 9.73413L28.3735 6.26697C28.3735 5.94289 28.6364 5.67996 28.9604 5.67996H34.8489C35.1729 5.67996 35.4358 5.94288 35.4358 6.26697L35.4359 9.73413C35.4359 10.0592 35.173 10.3211 34.8489 10.3211Z" fill="#7B1BF3" stroke="#7B1BF3" stroke-width="0.2"/>
<path fill-rule="evenodd" clip-rule="evenodd" d="M30.7633 28.3597C30.2599 28.3597 29.8516 27.9513 29.8516 27.4481L29.8517 22.1571C29.8517 21.6539 30.2599 21.2456 30.7632 21.2456C31.2665 21.2456 31.6748 21.6539 31.6748 22.1572L31.6749 27.4481C31.6749 27.9513 31.2665 28.3597 30.7633 28.3597Z" fill="#7B1BF3"/>
<path fill-rule="evenodd" clip-rule="evenodd" d="M24.3753 31.0059C24.1427 31.0059 23.9084 30.9173 23.7312 30.74L19.9897 26.997C19.6337 26.6409 19.6336 26.0648 19.9897 25.7088C20.3442 25.3526 20.9219 25.3526 21.278 25.7088L25.0195 29.4501C25.3756 29.8063 25.3756 30.384 25.0194 30.74C24.8422 30.9173 24.6096 31.0059 24.3753 31.0059Z" fill="#7B1BF3"/>
<path fill-rule="evenodd" clip-rule="evenodd" d="M21.726 37.3935H16.4351C15.9319 37.3935 15.5234 36.9868 15.5234 36.482C15.5234 35.9786 15.9318 35.5703 16.4351 35.5703H21.726C22.2294 35.5703 22.6375 35.9786 22.6375 36.482C22.6377 36.9868 22.2292 37.3935 21.726 37.3935Z" fill="#7B1BF3"/>
<path fill-rule="evenodd" clip-rule="evenodd" d="M20.6339 47.5244C20.3996 47.5244 20.167 47.4357 19.9897 47.2569C19.6337 46.9008 19.6336 46.3231 19.9897 45.967L23.7312 42.2256C24.0873 41.8694 24.6633 41.8695 25.0194 42.2256C25.3756 42.5816 25.3756 43.1594 25.0194 43.5155L21.2781 47.2569C21.1008 47.4357 20.8665 47.5244 20.6339 47.5244Z" fill="#7B1BF3"/>
<path fill-rule="evenodd" clip-rule="evenodd" d="M30.7633 51.7199C30.2599 51.7199 29.8516 51.3116 29.8516 50.8083L29.8517 45.5159C29.8517 45.0126 30.2599 44.6042 30.7632 44.6042C31.2665 44.6042 31.6748 45.0126 31.6748 45.5159L31.6749 50.8083C31.6749 51.3116 31.2665 51.7199 30.7633 51.7199Z" fill="#7B1BF3"/>
<path fill-rule="evenodd" clip-rule="evenodd" d="M40.8925 47.5244C40.6584 47.5244 40.4256 47.4357 40.2468 47.2569L36.5054 43.5155C36.1493 43.1593 36.1493 42.5817 36.5054 42.2256C36.8614 41.8694 37.4392 41.8695 37.7953 42.2256L41.5367 45.967C41.8928 46.3231 41.8928 46.9008 41.5367 47.2569C41.3596 47.4357 41.1252 47.5244 40.8925 47.5244Z" fill="#7B1BF3"/>
<path fill-rule="evenodd" clip-rule="evenodd" d="M45.0908 37.3935H39.7985C39.2951 37.3935 38.8867 36.9868 38.8867 36.482C38.8867 35.9786 39.295 35.5703 39.7983 35.5703H45.0908C45.5942 35.5703 46.0024 35.9786 46.0024 36.482C46.0025 36.9868 45.5941 37.3935 45.0908 37.3935Z" fill="#7B1BF3"/>
<path fill-rule="evenodd" clip-rule="evenodd" d="M37.1511 31.0059C36.917 31.0059 36.6842 30.9174 36.5054 30.74C36.1493 30.3839 36.1493 29.8063 36.5054 29.4502L40.2469 25.7087C40.603 25.3526 41.1806 25.3526 41.5367 25.7088C41.8928 26.0648 41.8928 26.6409 41.5367 26.997L37.7953 30.74C37.6164 30.9173 37.3837 31.0059 37.1511 31.0059Z" fill="#7B1BF3"/>
<defs>
<linearGradient id="paint0_linear_1481_9016" x1="66.9469" y1="10.8425" x2="0.163838" y2="10.0173" gradientUnits="userSpaceOnUse">
<stop stop-color="#FF3BD4"/>
<stop offset="0.310786" stop-color="#7B1BF3"/>
<stop offset="0.549372" stop-color="#7B1BF3"/>
<stop offset="0.981432" stop-color="#FC6500"/>
</linearGradient>
<linearGradient id="paint1_linear_1481_9016" x1="66.9469" y1="10.8425" x2="0.163838" y2="10.0173" gradientUnits="userSpaceOnUse">
<stop stop-color="#FF3BD4"/>
<stop offset="0.310786" stop-color="#7B1BF3"/>
<stop offset="0.549372" stop-color="#7B1BF3"/>
<stop offset="0.981432" stop-color="#FC6500"/>
</linearGradient>
</defs>
</svg>
