<svg width="61" height="62" viewBox="0 0 61 62" fill="none" xmlns="http://www.w3.org/2000/svg">
<mask id="path-1-outside-1_1481_9130" maskUnits="userSpaceOnUse" x="0" y="0" width="61" height="62" fill="black">
<rect fill="white" width="61" height="62"/>
<path fill-rule="evenodd" clip-rule="evenodd" d="M2.37398 7.02904C2.37398 4.46237 4.46247 2.37393 7.02918 2.37393H54.4378C57.0044 2.37393 59.093 4.46233 59.093 7.02904L59.093 13.6283L2.374 13.6283L2.37398 7.02904ZM1.0001 14.3271L1 54.9709C1 58.295 3.70399 61 7.02918 61H54.4377C57.7618 61 60.467 58.295 60.467 54.9709L60.4669 7.02911C60.4669 3.70388 57.762 1 54.4378 1H7.0291C3.70388 1 1.00012 3.70388 1.00012 7.02911L1.0001 14.3037C1.00003 14.3076 1 14.3114 1 14.3153C1 14.3192 1.00003 14.3232 1.0001 14.3271ZM2.374 15.0023H59.093L59.0929 54.9708C59.0929 57.5375 57.0045 59.6259 54.4378 59.6259H7.0291C4.46239 59.6259 2.3741 57.5375 2.3741 54.9708L2.374 15.0023Z"/>
</mask>
<path fill-rule="evenodd" clip-rule="evenodd" d="M2.37398 7.02904C2.37398 4.46237 4.46247 2.37393 7.02918 2.37393H54.4378C57.0044 2.37393 59.093 4.46233 59.093 7.02904L59.093 13.6283L2.374 13.6283L2.37398 7.02904ZM1.0001 14.3271L1 54.9709C1 58.295 3.70399 61 7.02918 61H54.4377C57.7618 61 60.467 58.295 60.467 54.9709L60.4669 7.02911C60.4669 3.70388 57.762 1 54.4378 1H7.0291C3.70388 1 1.00012 3.70388 1.00012 7.02911L1.0001 14.3037C1.00003 14.3076 1 14.3114 1 14.3153C1 14.3192 1.00003 14.3232 1.0001 14.3271ZM2.374 15.0023H59.093L59.0929 54.9708C59.0929 57.5375 57.0045 59.6259 54.4378 59.6259H7.0291C4.46239 59.6259 2.3741 57.5375 2.3741 54.9708L2.374 15.0023Z" fill="url(#paint0_linear_1481_9130)"/>
<path d="M2.37398 7.02904H2.27398V7.02904L2.37398 7.02904ZM59.093 7.02904H59.193H59.093ZM59.093 13.6283V13.7283H59.193V13.6283H59.093ZM2.374 13.6283H2.274L2.274 13.7283H2.374L2.374 13.6283ZM1 54.9709H0.9H1ZM1.0001 14.3271H1.10011L1.10008 14.3254L1.0001 14.3271ZM60.467 54.9709H60.567H60.467ZM60.4669 7.02911H60.3669V7.02911L60.4669 7.02911ZM1.00012 7.02911L1.10012 7.02911V7.02911H1.00012ZM1.0001 14.3037L1.1001 14.3054L1.1001 14.3037H1.0001ZM1 14.3153L0.9 14.3153V14.3153H1ZM59.093 15.0023H59.193V14.9023H59.093V15.0023ZM2.374 15.0023V14.9023H2.274L2.274 15.0023H2.374ZM59.0929 54.9708H58.9929H59.0929ZM2.3741 54.9708H2.4741H2.3741ZM7.02918 2.27393C4.40725 2.27393 2.27398 4.40714 2.27398 7.02904H2.47398C2.47398 4.5176 4.5177 2.47393 7.02918 2.47393V2.27393ZM54.4378 2.27393H7.02918V2.47393H54.4378V2.27393ZM59.193 7.02904C59.193 4.4071 57.0597 2.27393 54.4378 2.27393V2.47393C56.9492 2.47393 58.993 4.51757 58.993 7.02904H59.193ZM59.193 13.6283L59.193 7.02904H58.993L58.993 13.6283H59.193ZM2.374 13.7283L59.093 13.7283V13.5283L2.374 13.5283L2.374 13.7283ZM2.27398 7.02904L2.274 13.6283H2.474L2.47398 7.02904L2.27398 7.02904ZM1.1 54.9709L1.1001 14.3271H0.900099L0.9 54.9709H1.1ZM7.02918 60.9C3.75923 60.9 1.1 58.2397 1.1 54.9709H0.9C0.9 58.3502 3.64875 61.1 7.02918 61.1V60.9ZM54.4377 60.9H7.02918V61.1H54.4377V60.9ZM60.367 54.9709C60.367 58.2397 57.7066 60.9 54.4377 60.9V61.1C57.817 61.1 60.567 58.3502 60.567 54.9709H60.367ZM60.3669 7.02911L60.367 54.9709H60.567L60.5669 7.02911L60.3669 7.02911ZM54.4378 1.1C57.7067 1.1 60.3669 3.75912 60.3669 7.02911H60.5669C60.5669 3.64864 57.8172 0.9 54.4378 0.9V1.1ZM7.0291 1.1H54.4378V0.9H7.0291V1.1ZM1.10012 7.02911C1.10012 3.7591 3.75911 1.1 7.0291 1.1V0.9C3.64864 0.9 0.900117 3.64865 0.900117 7.02911H1.10012ZM1.1001 14.3037L1.10012 7.02911L0.900117 7.02911L0.900099 14.3037H1.1001ZM1.1 14.3153C1.1 14.312 1.10003 14.3087 1.10009 14.3054L0.900113 14.302C0.900039 14.3064 0.900001 14.3109 0.9 14.3153L1.1 14.3153ZM1.10008 14.3254C1.10003 14.322 1.1 14.3187 1.1 14.3153H0.9C0.9 14.3198 0.900038 14.3243 0.900113 14.3288L1.10008 14.3254ZM59.093 14.9023H2.374V15.1023H59.093V14.9023ZM59.1929 54.9708L59.193 15.0023H58.993L58.9929 54.9708H59.1929ZM54.4378 59.7259C57.0597 59.7259 59.1929 57.5928 59.1929 54.9708H58.9929C58.9929 57.4823 56.9492 59.5259 54.4378 59.5259V59.7259ZM7.0291 59.7259H54.4378V59.5259H7.0291V59.7259ZM2.2741 54.9708C2.2741 57.5928 4.40716 59.7259 7.0291 59.7259V59.5259C4.51762 59.5259 2.4741 57.4823 2.4741 54.9708H2.2741ZM2.274 15.0023L2.2741 54.9708H2.4741L2.474 15.0023H2.274Z" fill="url(#paint1_linear_1481_9130)" mask="url(#path-1-outside-1_1481_9130)"/>
<path d="M8.87168 9.04716V9.14716H8.97168H13.4873H13.5873V9.04716V6.95395V6.85395H13.4873H8.97168H8.87168V6.95395V9.04716ZM14.1742 10.3211H8.28471C7.96059 10.3211 7.69766 10.0592 7.69766 9.73413L7.6977 6.26697C7.6977 5.94289 7.96064 5.67996 8.28467 5.67996H14.1742C14.4983 5.67996 14.7612 5.9429 14.7612 6.26697V9.73413C14.7612 10.0593 14.4984 10.3211 14.1742 10.3211Z" fill="#7B1BF3" stroke="#7B1BF3" stroke-width="0.2"/>
<rect x="8.97266" y="6" width="5" height="4" fill="#7B1BF3"/>
<path d="M19.1959 9.04716V9.14716H19.2959H23.8104H23.9104V9.04716V6.95395V6.85395H23.8104H19.2959H19.1959V6.95395V9.04716ZM24.4974 10.3211H18.6089C18.2837 10.3211 18.0219 10.0594 18.0219 9.73413L18.0219 6.26697C18.0219 5.94278 18.2837 5.67996 18.6089 5.67996H24.4974C24.8213 5.67996 25.0842 5.94289 25.0842 6.26697L25.0844 9.73413C25.0844 10.0592 24.8214 10.3211 24.4974 10.3211Z" fill="#7B1BF3" stroke="#7B1BF3" stroke-width="0.2"/>
<rect x="18.9727" y="6" width="5" height="4" fill="#7B1BF3"/>
<rect x="28.9727" y="6" width="6" height="4" fill="#7B1BF3"/>
<path d="M29.5201 9.04716V9.14716H29.6201H34.1346H34.2346V9.04716V6.95395V6.85395H34.1346H29.6201H29.5201V6.95395V9.04716ZM34.8216 10.3211H28.9331C28.6091 10.3211 28.3461 10.0592 28.3461 9.73413L28.3461 6.26697C28.3461 5.94289 28.6091 5.67996 28.9331 5.67996H34.8216C35.1456 5.67996 35.4085 5.94288 35.4085 6.26697L35.4086 9.73413C35.4086 10.0592 35.1456 10.3211 34.8216 10.3211Z" fill="#7B1BF3" stroke="#7B1BF3" stroke-width="0.2"/>
<path d="M24.5225 44.1003C24.3023 44.1003 24.0806 44.0246 23.8997 43.8705L17.6742 38.5695C17.4594 38.3864 17.3359 38.119 17.3359 37.8366C17.3359 37.5548 17.46 37.2874 17.6742 37.1044L23.8997 31.8033C24.3039 31.4587 24.9111 31.5075 25.2558 31.9118C25.5999 32.3166 25.5516 32.9238 25.1468 33.2679L19.7819 37.8366L25.1468 42.4054C25.5516 42.7501 25.5999 43.3573 25.2558 43.7615C25.0652 43.9854 24.7946 44.1003 24.5225 44.1003Z" fill="#7B1BF3"/>
<path d="M36.8102 44.1003C36.538 44.1003 36.2674 43.9854 36.0774 43.7615C35.7327 43.3573 35.7816 42.7501 36.1858 42.4054L41.5507 37.8366L36.1858 33.2679C35.7816 32.9238 35.7327 32.3166 36.0774 31.9118C36.4215 31.5075 37.0292 31.4587 37.433 31.8033L43.6585 37.1044C43.8732 37.2874 43.9967 37.5548 43.9967 37.8366C43.9967 38.119 43.8732 38.3864 43.6585 38.5695L37.433 43.8705C37.252 44.0246 37.0303 44.1003 36.8102 44.1003Z" fill="#7B1BF3"/>
<path d="M28.4636 48.0764C28.3976 48.0764 28.331 48.0694 28.2639 48.0554C27.7442 47.9459 27.4113 47.4353 27.5208 46.9157L31.4008 28.4941C31.5103 27.9744 32.0203 27.6416 32.5406 27.7511C33.0603 27.8606 33.3931 28.3706 33.2836 28.8908L29.4036 47.3124C29.3081 47.7655 28.9087 48.0764 28.4636 48.0764Z" fill="#7B1BF3"/>
<defs>
<linearGradient id="paint0_linear_1481_9130" x1="66.9196" y1="10.8425" x2="0.136494" y2="10.0173" gradientUnits="userSpaceOnUse">
<stop stop-color="#FF3BD4"/>
<stop offset="0.310786" stop-color="#7B1BF3"/>
<stop offset="0.549372" stop-color="#7B1BF3"/>
<stop offset="0.981432" stop-color="#FC6500"/>
</linearGradient>
<linearGradient id="paint1_linear_1481_9130" x1="66.9196" y1="10.8425" x2="0.136494" y2="10.0173" gradientUnits="userSpaceOnUse">
<stop stop-color="#FF3BD4"/>
<stop offset="0.310786" stop-color="#7B1BF3"/>
<stop offset="0.549372" stop-color="#7B1BF3"/>
<stop offset="0.981432" stop-color="#FC6500"/>
</linearGradient>
</defs>
</svg>
